<svg width="16" height="16" viewBox="0 0 16 16" fill="none" xmlns="http://www.w3.org/2000/svg">
<g id="help-circle" clip-path="url(#clip0_2_2968)">
<path id="Icon" d="M6.06 6C6.21674 5.55444 6.5261 5.17873 6.93331 4.93942C7.34051 4.7001 7.81927 4.61262 8.28479 4.69247C8.75031 4.77232 9.17255 5.01434 9.47672 5.37568C9.78089 5.73702 9.94737 6.19434 9.94667 6.66666C9.94667 8 7.94667 8.66666 7.94667 8.66666M8 11.3333H8.00667M14.6667 8C14.6667 11.6819 11.6819 14.6667 8 14.6667C4.3181 14.6667 1.33334 11.6819 1.33334 8C1.33334 4.3181 4.3181 1.33333 8 1.33333C11.6819 1.33333 14.6667 4.3181 14.6667 8Z" stroke="#98A2B3" stroke-width="1.33333" stroke-linecap="round" stroke-linejoin="round"/>
</g>
<defs>
<clipPath id="clip0_2_2968">
<rect width="16" height="16" fill="white"/>
</clipPath>
</defs>
</svg>
