<svg width="20" height="20" viewBox="0 0 20 20" fill="none" xmlns="http://www.w3.org/2000/svg">
<g id="logo_compose_svg" clip-path="url(#clip0_2_2963)">
<g id="Union">
<path d="M9.63509 2.71861C9.61028 2.72027 9.58524 2.72111 9.56 2.72111C9.52842 2.72111 9.49715 2.71979 9.46623 2.71721C9.43127 2.72052 9.39583 2.72222 9.36 2.72222C9.33686 2.72222 9.31389 2.72151 9.29111 2.72012C9.24811 2.72517 9.20435 2.72777 9.15999 2.72777C9.14583 2.72777 9.13172 2.72751 9.11769 2.72698C9.06689 2.7341 9.01499 2.73777 8.96222 2.73777C8.95887 2.73777 8.95551 2.73776 8.95216 2.73773C8.89459 2.74747 8.83552 2.75277 8.7753 2.75329C8.72015 2.76359 8.66356 2.76982 8.60587 2.77165C8.55357 2.78267 8.49993 2.79002 8.44521 2.7934C8.38884 2.80702 8.3308 2.81634 8.27145 2.821C8.21808 2.83487 8.16315 2.84488 8.10698 2.8507C8.05447 2.8657 8.00037 2.87694 7.94499 2.8841C7.89076 2.90104 7.83475 2.91393 7.77731 2.92243C7.72722 2.93907 7.67556 2.95224 7.62259 2.96167C7.56989 2.98093 7.51531 2.99632 7.45921 3.00749C7.40914 3.0269 7.3573 3.04278 7.30402 3.05484C7.25214 3.07647 7.19828 3.09429 7.14277 3.10793C7.09386 3.12939 7.0431 3.14744 6.99081 3.16176C6.94091 3.1852 6.88898 3.20504 6.83536 3.22095C6.78707 3.24484 6.7368 3.26532 6.68485 3.28208C6.63612 3.30768 6.58525 3.32976 6.53259 3.348C6.48463 3.37446 6.4345 3.39747 6.38254 3.41672C6.33695 3.44311 6.28931 3.46636 6.23991 3.48616C6.19343 3.51473 6.14469 3.53998 6.09402 3.56156C6.04982 3.59002 6.00347 3.61543 5.95528 3.63749C5.9088 3.66919 5.85978 3.69746 5.8086 3.72192C5.76576 3.75214 5.72069 3.7794 5.67369 3.80342C5.62874 3.83695 5.58116 3.86716 5.53133 3.89368C5.48982 3.9257 5.44598 3.95485 5.40011 3.98082C5.35775 4.01532 5.31281 4.04677 5.2656 4.07481C5.22576 4.10856 5.18351 4.13956 5.13914 4.16751C5.09752 4.20472 5.05307 4.23884 5.00617 4.26951C4.96874 4.3041 4.92892 4.33616 4.88699 4.36539C4.84717 4.40446 4.80441 4.44056 4.75908 4.47333C4.72106 4.5119 4.68023 4.54771 4.63693 4.58042C4.59968 4.61988 4.55957 4.6566 4.51694 4.69027C4.4806 4.73038 4.44136 4.76782 4.39957 4.80227C4.36614 4.8408 4.33011 4.877 4.29174 4.9106C4.25541 4.95503 4.21572 4.99659 4.17305 5.03489C4.14125 5.07483 4.10676 5.11252 4.06986 5.1477C4.0364 5.19236 3.99966 5.23443 3.96 5.27353C3.92904 5.31635 3.89512 5.35687 3.85852 5.3948C3.82786 5.43958 3.794 5.48199 3.75729 5.52172C3.72765 5.56705 3.69478 5.61008 3.65902 5.65049C3.631 5.69542 3.59986 5.73821 3.5659 5.77854C3.5373 5.8271 3.50512 5.8733 3.46972 5.91677C3.44374 5.96263 3.4146 6.00647 3.38258 6.04798C3.35698 6.09608 3.32795 6.14206 3.29582 6.18562C3.27166 6.23348 3.24414 6.27935 3.21356 6.32293C3.1896 6.37352 3.16192 6.422 3.13089 6.46804C3.1083 6.51806 3.08211 6.5661 3.05266 6.61184C3.0322 6.65985 3.00846 6.70613 2.98172 6.75039C2.96045 6.80472 2.93503 6.85697 2.90585 6.90675C2.88774 6.95487 2.86639 7.00141 2.84207 7.04609C2.82348 7.10068 2.80077 7.15335 2.7743 7.20375C2.75753 7.2557 2.73705 7.30598 2.71316 7.35427C2.69802 7.4053 2.67932 7.45479 2.65734 7.50246C2.64268 7.55771 2.62387 7.61127 2.60126 7.66279C2.58812 7.71621 2.57113 7.76812 2.55058 7.81819C2.53838 7.87352 2.52205 7.9273 2.50193 7.9792C2.49119 8.03319 2.47653 8.08576 2.45827 8.13662C2.44879 8.19168 2.43525 8.24535 2.41798 8.29732C2.40953 8.35448 2.39672 8.41023 2.3799 8.4642C2.37303 8.51809 2.36229 8.57078 2.34799 8.62197C2.34225 8.68045 2.33199 8.7376 2.31754 8.79306C2.31303 8.84956 2.30429 8.90487 2.29163 8.95867C2.28848 9.01603 2.28097 9.07224 2.26944 9.12696C2.26761 9.18468 2.26138 9.24128 2.25107 9.29645C2.25057 9.35448 2.24562 9.41144 2.23655 9.46701C2.23663 9.47244 2.23667 9.47788 2.23667 9.48333C2.23667 9.53401 2.23327 9.5839 2.2267 9.63278C2.22742 9.64917 2.22778 9.66565 2.22778 9.68222C2.22778 9.72646 2.2252 9.7701 2.22017 9.81299C2.22153 9.83553 2.22222 9.85824 2.22222 9.88111C2.22222 9.91481 2.22072 9.94817 2.21778 9.98111C2.22072 10.0141 2.22222 10.0474 2.22222 10.0811C2.22222 10.1085 2.22123 10.1356 2.21929 10.1624C2.22343 10.2014 2.22556 10.241 2.22556 10.2811C2.22556 10.2974 2.22521 10.3136 2.22451 10.3297C2.23106 10.3785 2.23444 10.4283 2.23444 10.4789C2.23444 10.4847 2.2344 10.4905 2.23431 10.4962C2.24372 10.5538 2.24869 10.6129 2.24888 10.6731C2.25886 10.7283 2.26477 10.7849 2.26628 10.8426C2.27749 10.8973 2.28467 10.9535 2.28751 11.0108C2.29995 11.0652 2.30841 11.121 2.31257 11.178C2.32612 11.2314 2.33581 11.2863 2.34131 11.3425C2.35615 11.3956 2.36714 11.4502 2.37398 11.5062C2.39066 11.5609 2.40325 11.6173 2.41138 11.6752C2.42755 11.725 2.4403 11.7763 2.44936 11.8289C2.4683 11.8816 2.48336 11.9362 2.49421 11.9923C2.51427 12.0449 2.53044 12.0995 2.54237 12.1556C2.56235 12.2053 2.57884 12.2567 2.59155 12.3097C2.61304 12.3594 2.63101 12.411 2.64512 12.4642C2.6683 12.5145 2.68784 12.5668 2.70339 12.6208C2.72659 12.6685 2.74647 12.7182 2.76273 12.7695C2.78797 12.8183 2.80971 12.8691 2.82762 12.9217C2.85336 12.969 2.87577 13.0183 2.89452 13.0694C2.92194 13.117 2.94593 13.1668 2.96617 13.2185C2.99386 13.2643 3.01833 13.3123 3.03927 13.3622C3.06902 13.4089 3.09536 13.4581 3.11796 13.5092C3.14703 13.5531 3.17307 13.5991 3.19578 13.6471C3.22738 13.6921 3.25571 13.7396 3.28045 13.7892C3.31197 13.8324 3.34046 13.878 3.36558 13.9256C3.39788 13.9677 3.42724 14.0122 3.45333 14.0588C3.48838 14.1023 3.52022 14.1485 3.5485 14.197C3.58196 14.2371 3.61264 14.2797 3.64025 14.3244C3.67511 14.364 3.70719 14.4062 3.73618 14.4505C3.77504 14.4925 3.81069 14.5376 3.84275 14.5853C3.87796 14.6224 3.91063 14.6619 3.9405 14.7036C3.97984 14.7428 4.01627 14.7848 4.04943 14.8295C4.08632 14.8649 4.12077 14.9029 4.15251 14.9431C4.19496 14.9815 4.23442 15.0232 4.27051 15.0678C4.30873 15.1015 4.34462 15.1378 4.37789 15.1765C4.41958 15.2112 4.45869 15.2488 4.4949 15.2892C4.53867 15.324 4.57975 15.3621 4.61778 15.4031C4.6583 15.4342 4.69661 15.4681 4.73243 15.5045C4.77775 15.5372 4.82051 15.5733 4.86033 15.6124C4.9048 15.6434 4.9469 15.6776 4.98629 15.7146C5.03029 15.7439 5.07208 15.7763 5.11137 15.8114C5.15736 15.8403 5.20108 15.8726 5.2422 15.9078C5.28876 15.9357 5.33309 15.967 5.37489 16.0013C5.42375 16.0292 5.47029 16.0607 5.51415 16.0955C5.55933 16.1203 5.6026 16.1482 5.64368 16.1788C5.69334 16.2042 5.74085 16.2332 5.78584 16.2654C5.83399 16.289 5.88019 16.3159 5.92413 16.3458C5.97235 16.3679 6.01872 16.3933 6.06294 16.4218C6.11548 16.4442 6.16594 16.4705 6.21396 16.5004C6.26416 16.5208 6.31253 16.5448 6.35875 16.572C6.40966 16.5913 6.45878 16.6143 6.50579 16.6406C6.55716 16.6586 6.60679 16.6804 6.65439 16.7055C6.70733 16.7228 6.75853 16.7439 6.80765 16.7685C6.85928 16.7841 6.90932 16.8034 6.95747 16.826C7.01181 16.8409 7.06448 16.8598 7.11516 16.8824C7.17072 16.8964 7.22462 16.9145 7.2765 16.9365C7.32816 16.9485 7.37844 16.9641 7.42705 16.983C7.48445 16.9945 7.54024 17.0105 7.59406 17.0305C7.64741 17.0403 7.69942 17.0539 7.74981 17.071C7.80416 17.0795 7.8572 17.0918 7.90864 17.1079C7.96707 17.1153 8.02409 17.1273 8.07932 17.1435C8.13507 17.1497 8.18957 17.16 8.24252 17.1741C8.29904 17.1789 8.35436 17.188 8.40815 17.2009C8.46564 17.2044 8.52195 17.2123 8.57676 17.2242C8.63402 17.2264 8.69017 17.2329 8.74489 17.2434C8.80294 17.2443 8.85991 17.2495 8.91549 17.2589C8.91714 17.2589 8.9188 17.2589 8.92046 17.2589C8.92215 17.2589 8.92385 17.2589 8.92555 17.2589C8.98048 17.2589 9.03448 17.2629 9.08727 17.2706C9.09925 17.2702 9.11126 17.27 9.12333 17.27C9.16972 17.27 9.21544 17.2728 9.26033 17.2784C9.28082 17.2772 9.30145 17.2767 9.32222 17.2767C9.36001 17.2767 9.39736 17.2786 9.43418 17.2822C9.46287 17.28 9.49185 17.2789 9.5211 17.2789C9.55311 17.2789 9.58479 17.2802 9.61611 17.2829C9.64743 17.2802 9.67911 17.2789 9.71111 17.2789C9.74311 17.2789 9.7748 17.2802 9.80611 17.2829C9.83743 17.2802 9.86911 17.2789 9.90111 17.2789C9.9333 17.2789 9.96517 17.2803 9.99666 17.2829C10.0282 17.2803 10.06 17.2789 10.0922 17.2789C10.1242 17.2789 10.1559 17.2802 10.1872 17.2829C10.2185 17.2802 10.2502 17.2789 10.2822 17.2789C10.3142 17.2789 10.3459 17.2802 10.3772 17.2829C10.4085 17.2802 10.4402 17.2789 10.4722 17.2789C10.5042 17.2789 10.5359 17.2802 10.5672 17.2829C10.5985 17.2802 10.6302 17.2789 10.6622 17.2789C10.6942 17.2789 10.7259 17.2802 10.7572 17.2829C10.7885 17.2802 10.8202 17.2789 10.8522 17.2789C10.8844 17.2789 10.9163 17.2803 10.9478 17.2829C10.9793 17.2803 11.0111 17.2789 11.0433 17.2789C11.0753 17.2789 11.107 17.2802 11.1383 17.2829C11.1696 17.2802 11.2013 17.2789 11.2333 17.2789C11.2653 17.2789 11.297 17.2802 11.3283 17.2829C11.3597 17.2802 11.3913 17.2789 11.4233 17.2789C11.4553 17.2789 11.487 17.2802 11.5183 17.2829C11.5497 17.2802 11.5813 17.2789 11.6133 17.2789C11.6453 17.2789 11.677 17.2802 11.7083 17.2829C11.7396 17.2802 11.7713 17.2789 11.8033 17.2789C11.8353 17.2789 11.867 17.2802 11.8983 17.2829C11.9296 17.2802 11.9613 17.2789 11.9933 17.2789C12.0255 17.2789 12.0574 17.2803 12.0889 17.2829C12.1204 17.2803 12.1523 17.2789 12.1844 17.2789C12.2164 17.2789 12.2481 17.2802 12.2794 17.2829C12.3108 17.2802 12.3424 17.2789 12.3744 17.2789C12.4064 17.2789 12.4381 17.2802 12.4694 17.2829C12.5008 17.2802 12.5324 17.2789 12.5644 17.2789C12.5964 17.2789 12.6281 17.2802 12.6594 17.2829C12.6908 17.2802 12.7224 17.2789 12.7544 17.2789C12.7864 17.2789 12.8181 17.2802 12.8494 17.2829C12.8808 17.2802 12.9124 17.2789 12.9444 17.2789C12.9766 17.2789 13.0085 17.2803 13.04 17.2829C13.0715 17.2803 13.1034 17.2789 13.1355 17.2789C13.1675 17.2789 13.1992 17.2802 13.2305 17.2829C13.2619 17.2802 13.2935 17.2789 13.3255 17.2789C13.3575 17.2789 13.3892 17.2802 13.4206 17.2829C13.4519 17.2802 13.4836 17.2789 13.5156 17.2789C13.5476 17.2789 13.5792 17.2802 13.6106 17.2829C13.6419 17.2802 13.6736 17.2789 13.7056 17.2789C13.7376 17.2789 13.7692 17.2802 13.8006 17.2829C13.8319 17.2802 13.8636 17.2789 13.8956 17.2789C13.9276 17.2789 13.9592 17.2802 13.9906 17.2829C14.0219 17.2802 14.0536 17.2789 14.0856 17.2789C14.1177 17.2789 14.1496 17.2803 14.1811 17.2829C14.2126 17.2803 14.2445 17.2789 14.2767 17.2789C14.3087 17.2789 14.3403 17.2802 14.3717 17.2829C14.403 17.2802 14.4347 17.2789 14.4667 17.2789C14.4987 17.2789 14.5303 17.2802 14.5617 17.2829C14.593 17.2802 14.6247 17.2789 14.6567 17.2789C14.6887 17.2789 14.7204 17.2802 14.7517 17.2829C14.783 17.2802 14.8147 17.2789 14.8467 17.2789C14.8787 17.2789 14.9103 17.2802 14.9417 17.2829C14.973 17.2802 15.0047 17.2789 15.0367 17.2789C15.0689 17.2789 15.1007 17.2803 15.1322 17.2829C15.1637 17.2803 15.1956 17.2789 15.2278 17.2789C15.2598 17.2789 15.2915 17.2802 15.3228 17.2829C15.3541 17.2802 15.3858 17.2789 15.4178 17.2789C15.4498 17.2789 15.4815 17.2802 15.5128 17.2829C15.5441 17.2802 15.5758 17.2789 15.6078 17.2789C15.6398 17.2789 15.6715 17.2802 15.7028 17.2829C15.7341 17.2802 15.7658 17.2789 15.7978 17.2789C15.8298 17.2789 15.8615 17.2802 15.8928 17.2829C15.9241 17.2802 15.9558 17.2789 15.9878 17.2789C16.02 17.2789 16.0518 17.2803 16.0833 17.2829C16.1148 17.2803 16.1467 17.2789 16.1789 17.2789C16.2109 17.2789 16.2426 17.2802 16.2739 17.2829C16.3052 17.2802 16.3369 17.2789 16.3689 17.2789C16.4009 17.2789 16.4326 17.2802 16.4639 17.2829C16.4952 17.2802 16.5269 17.2789 16.5589 17.2789C16.5909 17.2789 16.6226 17.2802 16.6539 17.2829C16.6852 17.2802 16.7169 17.2789 16.7489 17.2789C16.7809 17.2789 16.8126 17.2802 16.8439 17.2829C16.8752 17.2802 16.9069 17.2789 16.9389 17.2789C16.9709 17.2789 17.0026 17.2802 17.0339 17.2829C17.0652 17.2802 17.0969 17.2789 17.1289 17.2789C17.1611 17.2789 17.1929 17.2803 17.2244 17.2829C17.2559 17.2803 17.2878 17.2789 17.32 17.2789C17.352 17.2789 17.3837 17.2802 17.415 17.2829C17.4463 17.2802 17.478 17.2789 17.51 17.2789C17.542 17.2789 17.5737 17.2802 17.605 17.2829C17.6363 17.2802 17.668 17.2789 17.7 17.2789C17.732 17.2789 17.7637 17.2802 17.795 17.2829C17.8263 17.2802 17.858 17.2789 17.89 17.2789C18.5036 17.2789 19.0011 17.7763 19.0011 18.39C19.0011 19.0036 18.5036 19.5011 17.89 19.5011C17.858 19.5011 17.8263 19.4998 17.795 19.4971C17.7637 19.4998 17.732 19.5011 17.7 19.5011C17.668 19.5011 17.6363 19.4998 17.605 19.4971C17.5737 19.4998 17.542 19.5011 17.51 19.5011C17.478 19.5011 17.4463 19.4998 17.415 19.4971C17.3837 19.4998 17.352 19.5011 17.32 19.5011C17.2878 19.5011 17.2559 19.4997 17.2244 19.4971C17.1929 19.4997 17.1611 19.5011 17.1289 19.5011C17.0969 19.5011 17.0652 19.4998 17.0339 19.4971C17.0026 19.4998 16.9709 19.5011 16.9389 19.5011C16.9069 19.5011 16.8752 19.4998 16.8439 19.4971C16.8126 19.4998 16.7809 19.5011 16.7489 19.5011C16.7169 19.5011 16.6852 19.4998 16.6539 19.4971C16.6226 19.4998 16.5909 19.5011 16.5589 19.5011C16.5269 19.5011 16.4952 19.4998 16.4639 19.4971C16.4326 19.4998 16.4009 19.5011 16.3689 19.5011C16.3369 19.5011 16.3052 19.4998 16.2739 19.4971C16.2426 19.4998 16.2109 19.5011 16.1789 19.5011C16.1467 19.5011 16.1148 19.4997 16.0833 19.4971C16.0518 19.4997 16.02 19.5011 15.9878 19.5011C15.9558 19.5011 15.9241 19.4998 15.8928 19.4971C15.8615 19.4998 15.8298 19.5011 15.7978 19.5011C15.7658 19.5011 15.7341 19.4998 15.7028 19.4971C15.6715 19.4998 15.6398 19.5011 15.6078 19.5011C15.5758 19.5011 15.5441 19.4998 15.5128 19.4971C15.4815 19.4998 15.4498 19.5011 15.4178 19.5011C15.3858 19.5011 15.3541 19.4998 15.3228 19.4971C15.2915 19.4998 15.2598 19.5011 15.2278 19.5011C15.1956 19.5011 15.1637 19.4997 15.1322 19.4971C15.1007 19.4997 15.0689 19.5011 15.0367 19.5011C15.0047 19.5011 14.973 19.4998 14.9417 19.4971C14.9103 19.4998 14.8787 19.5011 14.8467 19.5011C14.8147 19.5011 14.783 19.4998 14.7517 19.4971C14.7204 19.4998 14.6887 19.5011 14.6567 19.5011C14.6247 19.5011 14.593 19.4998 14.5617 19.4971C14.5303 19.4998 14.4987 19.5011 14.4667 19.5011C14.4347 19.5011 14.403 19.4998 14.3717 19.4971C14.3403 19.4998 14.3087 19.5011 14.2767 19.5011C14.2445 19.5011 14.2126 19.4997 14.1811 19.4971C14.1496 19.4997 14.1177 19.5011 14.0856 19.5011C14.0536 19.5011 14.0219 19.4998 13.9906 19.4971C13.9592 19.4998 13.9276 19.5011 13.8956 19.5011C13.8636 19.5011 13.8319 19.4998 13.8006 19.4971C13.7692 19.4998 13.7376 19.5011 13.7056 19.5011C13.6736 19.5011 13.6419 19.4998 13.6106 19.4971C13.5792 19.4998 13.5476 19.5011 13.5156 19.5011C13.4836 19.5011 13.4519 19.4998 13.4206 19.4971C13.3892 19.4998 13.3575 19.5011 13.3255 19.5011C13.2935 19.5011 13.2619 19.4998 13.2305 19.4971C13.1992 19.4998 13.1675 19.5011 13.1355 19.5011C13.1034 19.5011 13.0715 19.4997 13.04 19.4971C13.0085 19.4997 12.9766 19.5011 12.9444 19.5011C12.9124 19.5011 12.8808 19.4998 12.8494 19.4971C12.8181 19.4998 12.7864 19.5011 12.7544 19.5011C12.7224 19.5011 12.6908 19.4998 12.6594 19.4971C12.6281 19.4998 12.5964 19.5011 12.5644 19.5011C12.5324 19.5011 12.5008 19.4998 12.4694 19.4971C12.4381 19.4998 12.4064 19.5011 12.3744 19.5011C12.3424 19.5011 12.3108 19.4998 12.2794 19.4971C12.2481 19.4998 12.2164 19.5011 12.1844 19.5011C12.1523 19.5011 12.1204 19.4997 12.0889 19.4971C12.0574 19.4997 12.0255 19.5011 11.9933 19.5011C11.9613 19.5011 11.9296 19.4998 11.8983 19.4971C11.867 19.4998 11.8353 19.5011 11.8033 19.5011C11.7713 19.5011 11.7396 19.4998 11.7083 19.4971C11.677 19.4998 11.6453 19.5011 11.6133 19.5011C11.5813 19.5011 11.5497 19.4998 11.5183 19.4971C11.487 19.4998 11.4553 19.5011 11.4233 19.5011C11.3913 19.5011 11.3597 19.4998 11.3283 19.4971C11.297 19.4998 11.2653 19.5011 11.2333 19.5011C11.2013 19.5011 11.1696 19.4998 11.1383 19.4971C11.107 19.4998 11.0753 19.5011 11.0433 19.5011C11.0111 19.5011 10.9793 19.4997 10.9478 19.4971C10.9163 19.4997 10.8844 19.5011 10.8522 19.5011C10.8202 19.5011 10.7885 19.4998 10.7572 19.4971C10.7259 19.4998 10.6942 19.5011 10.6622 19.5011C10.6302 19.5011 10.5985 19.4998 10.5672 19.4971C10.5359 19.4998 10.5042 19.5011 10.4722 19.5011C10.4402 19.5011 10.4085 19.4998 10.3772 19.4971C10.3459 19.4998 10.3142 19.5011 10.2822 19.5011C10.2502 19.5011 10.2185 19.4998 10.1872 19.4971C10.1559 19.4998 10.1242 19.5011 10.0922 19.5011C10.06 19.5011 10.0282 19.4997 9.99666 19.4971C9.96517 19.4997 9.9333 19.5011 9.90111 19.5011C9.86911 19.5011 9.83743 19.4998 9.80611 19.4971C9.7748 19.4998 9.74311 19.5011 9.71111 19.5011C9.67911 19.5011 9.64743 19.4998 9.61611 19.4971C9.58479 19.4998 9.55311 19.5011 9.5211 19.5011C9.48331 19.5011 9.44596 19.4992 9.40914 19.4955C9.38046 19.4978 9.35147 19.4989 9.32222 19.4989C9.27584 19.4989 9.23012 19.496 9.18522 19.4905C9.16473 19.4916 9.1441 19.4922 9.12333 19.4922C9.0684 19.4922 9.0144 19.4882 8.96161 19.4805C8.94964 19.4809 8.93762 19.4811 8.92555 19.4811C8.86196 19.4811 8.79962 19.4758 8.73896 19.4655L8.73481 19.4655L8.72889 19.4656C8.65656 19.4656 8.58583 19.4586 8.51735 19.4454C8.44169 19.4444 8.36787 19.4357 8.29659 19.4203C8.22176 19.4174 8.14884 19.4071 8.07852 19.3902C8.00332 19.3856 7.93013 19.3736 7.8597 19.3548C7.78509 19.3484 7.71258 19.3347 7.6429 19.3143C7.57162 19.3064 7.50237 19.2917 7.4358 19.271C7.36138 19.2615 7.28926 19.2447 7.22019 19.2212C7.1457 19.2096 7.07366 19.1906 7.00484 19.165C6.93544 19.1523 6.8683 19.1331 6.80405 19.1081C6.73022 19.0933 6.65903 19.0711 6.59128 19.0424C6.52197 19.0263 6.45516 19.0038 6.3915 18.9754C6.32197 18.9579 6.25505 18.9339 6.19142 18.904C6.1205 18.8846 6.05241 18.8583 5.98791 18.8259C5.9197 18.8053 5.85426 18.7783 5.79228 18.7456C5.72343 18.7232 5.65754 18.6942 5.59533 18.6594C5.52737 18.6355 5.46244 18.6052 5.40126 18.5691C5.33392 18.5436 5.26972 18.5116 5.20938 18.4741C5.14542 18.4481 5.08444 18.4163 5.02707 18.3793C4.96008 18.3508 4.89646 18.3159 4.83698 18.2753C4.77165 18.2454 4.70972 18.2093 4.65193 18.1679C4.58952 18.1374 4.53039 18.1012 4.47521 18.0601C4.40952 18.0265 4.34761 17.9866 4.29029 17.9412C4.23015 17.9082 4.17339 17.8697 4.12067 17.8265C4.05955 17.7916 4.00207 17.751 3.94893 17.7055C3.88857 17.6693 3.83195 17.6275 3.77975 17.5808C3.71909 17.5426 3.66238 17.4987 3.61038 17.4499C3.55194 17.4109 3.49739 17.3666 3.44746 17.3176C3.39126 17.2784 3.33886 17.2342 3.29091 17.1855C3.23147 17.1426 3.17645 17.0939 3.12666 17.0403C3.07232 16.9985 3.02195 16.9518 2.97622 16.9008C2.92152 16.8573 2.87103 16.8087 2.82544 16.7557C2.76924 16.709 2.71773 16.6568 2.67171 16.6C2.62164 16.5558 2.57559 16.5072 2.53416 16.4547C2.48007 16.4057 2.43083 16.3514 2.38725 16.2927C2.33785 16.2453 2.29282 16.1933 2.25284 16.1375C2.20125 16.0862 2.15468 16.0298 2.11392 15.9692C2.06786 15.9206 2.02614 15.8679 1.98938 15.8117C1.94093 15.7593 1.89747 15.7022 1.85975 15.6412C1.81235 15.5873 1.77009 15.5287 1.73373 15.4664C1.69015 15.414 1.65128 15.3577 1.61778 15.2979C1.57303 15.2423 1.5335 15.1824 1.49996 15.1189C1.45694 15.0627 1.41915 15.0024 1.38732 14.9386C1.34651 14.8827 1.3108 14.8228 1.28088 14.7596C1.23949 14.7006 1.2037 14.6374 1.17426 14.5708C1.13618 14.5133 1.1033 14.4521 1.07629 14.3878C1.03816 14.3279 1.00562 14.2641 0.979392 14.1971C0.943052 14.1369 0.912254 14.073 0.887705 14.0061C0.852149 13.9444 0.822352 13.879 0.799046 13.8105C0.765534 13.749 0.737672 13.6839 0.716157 13.616C0.682965 13.552 0.655825 13.4843 0.635494 13.4137C0.604795 13.3505 0.579912 13.2839 0.561542 13.2147C0.531588 13.1497 0.507721 13.0814 0.490672 13.0103C0.462024 12.9441 0.439648 12.8744 0.424291 12.8022C0.3983 12.7375 0.378206 12.6699 0.364677 12.6C0.339633 12.5342 0.32065 12.4655 0.30841 12.3945C0.283192 12.3243 0.264845 12.2508 0.254179 12.1748C0.232511 12.1081 0.216978 12.0387 0.208246 11.9671C0.187151 11.898 0.17261 11.8261 0.165345 11.752C0.14577 11.6819 0.132885 11.6091 0.127423 11.5342C0.109564 11.4639 0.0984183 11.3908 0.0947079 11.3158C0.0784802 11.245 0.0690227 11.1716 0.0670518 11.0963C0.0524584 11.025 0.0446879 10.9513 0.0444527 10.8758C0.0327674 10.8112 0.0266656 10.7446 0.0266656 10.6767C0.0266656 10.6709 0.0267101 10.6651 0.0267982 10.6593C0.0172072 10.6006 0.0122206 10.5403 0.0122206 10.4789C0.0122206 10.4626 0.0125711 10.4464 0.0132645 10.4303C0.00671726 10.3815 0.00333659 10.3317 0.00333659 10.2811C0.00333659 10.2538 0.00432417 10.2267 0.00626585 10.1998C0.00212394 10.1608 0 10.1212 0 10.0811C0 10.0474 0.00150087 10.0141 0.00443903 9.98111C0.00150087 9.94817 0 9.91481 0 9.88111C0 9.83687 0.00258594 9.79323 0.00761456 9.75034C0.00625229 9.72781 0.00556098 9.70509 0.00556098 9.68222C0.00556098 9.63154 0.00895394 9.58165 0.0155254 9.53277C0.0148078 9.51638 0.014445 9.4999 0.014445 9.48333C0.014445 9.42192 0.0194266 9.36168 0.0290074 9.30298C0.0289684 9.30026 0.0289387 9.29754 0.0289192 9.29482C0.0288997 9.2921 0.02889 9.28938 0.02889 9.28666C0.02889 9.21651 0.0353915 9.14787 0.0478261 9.08132C0.0484776 9.00578 0.0566673 8.93204 0.0716803 8.86082C0.0740666 8.78552 0.0839437 8.71212 0.100591 8.64133C0.104726 8.56615 0.116335 8.49296 0.134687 8.42249C0.140454 8.35032 0.153117 8.2801 0.172018 8.21248C0.179492 8.13624 0.19467 8.06227 0.216763 7.99135C0.225938 7.91942 0.24199 7.84964 0.264241 7.78268C0.275049 7.70961 0.292972 7.63886 0.317281 7.57115C0.329888 7.49797 0.349654 7.42723 0.375832 7.35969C0.389851 7.28925 0.41053 7.22121 0.437185 7.15625C0.452932 7.08486 0.475544 7.01605 0.504294 6.95054C0.521239 6.8816 0.54462 6.81519 0.573761 6.75198C0.592836 6.68011 0.618933 6.6111 0.651274 6.54573C0.671915 6.47614 0.699188 6.40941 0.732361 6.34625C0.753628 6.28034 0.780884 6.21713 0.813489 6.15724C0.837712 6.0861 0.868949 6.0182 0.906375 5.95437C0.930397 5.89052 0.960128 5.82946 0.994947 5.77183C1.02192 5.70291 1.05558 5.63735 1.09513 5.57593C1.12287 5.51081 1.15666 5.44888 1.19578 5.39085C1.22449 5.32729 1.25901 5.26691 1.29865 5.2104C1.32944 5.14542 1.36634 5.08391 1.40862 5.0266C1.44041 4.96362 1.47803 4.90408 1.52075 4.84868C1.55478 4.78474 1.59488 4.72452 1.64028 4.66879C1.67416 4.60897 1.71343 4.5526 1.75742 4.50034C1.79379 4.43858 1.83596 4.38065 1.88318 4.32729C1.92036 4.26768 1.96303 4.21184 2.01048 4.1605C2.04895 4.10166 2.09286 4.04669 2.14148 3.9963C2.18197 3.93718 2.22803 3.88216 2.27889 3.83202C2.31898 3.77656 2.36406 3.72496 2.41347 3.67785C2.45739 3.61922 2.50697 3.56507 2.5614 3.51621C2.60299 3.46398 2.64919 3.41557 2.69938 3.37161C2.74564 3.31503 2.79737 3.2631 2.85376 3.21662C2.8996 3.16379 2.95034 3.11533 3.00528 3.07195C3.05218 3.02018 3.1039 2.97286 3.15972 2.93068C3.20781 2.87975 3.26067 2.83336 3.31757 2.79223C3.36552 2.74359 3.41792 2.69934 3.47412 2.66016C3.5263 2.60896 3.58351 2.56288 3.64494 2.52271C3.69507 2.47637 3.74949 2.4346 3.80752 2.39804C3.86097 2.35026 3.91908 2.30757 3.98107 2.27074C4.03405 2.22585 4.0913 2.18584 4.15212 2.1514C4.20785 2.106 4.26807 2.0659 4.332 2.03187C4.38601 1.99021 4.44396 1.95342 4.5052 1.92213C4.56283 1.87914 4.62478 1.8416 4.69028 1.8103C4.74598 1.77101 4.80545 1.73671 4.86804 1.70806C4.92754 1.66749 4.99118 1.63254 5.0582 1.60399C5.1171 1.56606 5.17981 1.53356 5.24564 1.50716C5.30699 1.46945 5.37229 1.43753 5.44077 1.41217C5.50144 1.37705 5.56573 1.3475 5.63296 1.32422C5.69444 1.29031 5.75947 1.26205 5.82736 1.24014C5.89052 1.20696 5.95726 1.17969 6.02686 1.15905C6.08969 1.12796 6.15589 1.10265 6.22475 1.08379C6.29013 1.05308 6.35898 1.02855 6.43056 1.01096C6.49428 0.982992 6.56112 0.960835 6.63042 0.945155C6.69713 0.917337 6.76713 0.895835 6.83968 0.881396C6.90538 0.855928 6.97411 0.836528 7.04518 0.823884C7.11469 0.798473 7.18746 0.779807 7.26269 0.76868C7.32905 0.746627 7.39819 0.730662 7.46945 0.721449C7.53871 0.699816 7.61088 0.684781 7.68524 0.677076C7.75524 0.657072 7.82808 0.643763 7.903 0.637885C7.97092 0.620231 8.04136 0.60884 8.11368 0.604367C8.18648 0.586778 8.26208 0.576358 8.33968 0.573897C8.41093 0.558879 8.48469 0.550688 8.56025 0.550039C8.62679 0.537609 8.69541 0.531109 8.76556 0.531109C8.76891 0.531109 8.77227 0.531125 8.77562 0.531154C8.83629 0.520894 8.89863 0.515552 8.96222 0.515552C8.97639 0.515552 8.99049 0.515817 9.00453 0.516343C9.05533 0.50923 9.10723 0.505553 9.15999 0.505553C9.18313 0.505553 9.20609 0.50626 9.22888 0.507654C9.27188 0.502598 9.31564 0.499998 9.36 0.499998C9.39158 0.499998 9.42285 0.501316 9.45376 0.503899C9.48873 0.500582 9.52417 0.498886 9.56 0.498886C9.60223 0.498886 9.64391 0.501242 9.68491 0.505828C9.70972 0.504173 9.73476 0.503332 9.75999 0.503332C9.80842 0.503332 9.85612 0.506429 9.90291 0.512438C9.92109 0.511554 9.93938 0.511107 9.95778 0.511107C10.0171 0.511107 10.0752 0.515748 10.132 0.524688C10.1398 0.524525 10.1477 0.524443 10.1556 0.524443C10.2213 0.524443 10.2857 0.530156 10.3484 0.541113L10.3511 0.541109C10.4278 0.541109 10.5027 0.548882 10.575 0.563685C10.6508 0.565583 10.7246 0.575057 10.7958 0.591377C10.8688 0.594988 10.9399 0.605632 11.0085 0.622647C11.0848 0.627895 11.159 0.640851 11.2303 0.660743C11.3028 0.66774 11.3732 0.681701 11.441 0.70195C11.515 0.710569 11.5868 0.726468 11.6557 0.748914C11.7284 0.759262 11.7989 0.776652 11.8664 0.800371C11.9403 0.812544 12.0117 0.832012 12.08 0.858011C12.1499 0.871542 12.2176 0.891636 12.2822 0.917629C12.3539 0.932877 12.4231 0.955045 12.4889 0.983401C12.5588 0.999998 12.6261 1.02319 12.6901 1.05228C12.7614 1.07078 12.8298 1.09618 12.8948 1.12771C12.9654 1.14804 13.0331 1.17518 13.0971 1.20838C13.1623 1.22904 13.2249 1.25556 13.2843 1.28731C13.3566 1.31126 13.4255 1.34243 13.4904 1.37996C13.5542 1.4036 13.6152 1.43293 13.6729 1.46735C13.741 1.49361 13.8059 1.52638 13.8668 1.56491C13.9323 1.59218 13.9946 1.62554 14.0531 1.66429C14.1178 1.6929 14.1793 1.72753 14.2369 1.76745C14.301 1.79743 14.3617 1.83334 14.4184 1.87448C14.4835 1.90667 14.545 1.94504 14.6022 1.98884C14.664 2.02146 14.7224 2.05974 14.7766 2.103C14.8381 2.13708 14.896 2.17682 14.9497 2.22151C15.0111 2.25728 15.0687 2.29876 15.1219 2.34523C15.1827 2.3825 15.2397 2.42545 15.292 2.47335C15.3498 2.51077 15.4039 2.55341 15.4536 2.6006C15.5131 2.64061 15.5686 2.68624 15.6192 2.73671C15.6776 2.77816 15.7318 2.82511 15.781 2.87681C15.8358 2.91779 15.8866 2.96369 15.9328 3.01387C15.9881 3.05681 16.0393 3.10486 16.0856 3.15732C16.1412 3.2024 16.1924 3.25275 16.2384 3.3076C16.2917 3.35299 16.3405 3.40332 16.3844 3.45787C16.4366 3.50435 16.4843 3.55568 16.527 3.61114C16.5782 3.65877 16.625 3.71117 16.6666 3.76765C16.7179 3.81738 16.7644 3.87201 16.8054 3.9308C16.8544 3.98073 16.8987 4.03527 16.9376 4.09371C16.9865 4.1457 17.0304 4.2024 17.0686 4.26305C17.1132 4.31293 17.1533 4.36685 17.1884 4.42421C17.2364 4.47927 17.279 4.53911 17.3154 4.60291C17.3586 4.65562 17.3971 4.71238 17.4301 4.77253C17.4755 4.82983 17.5154 4.89173 17.549 4.9574C17.5891 5.01117 17.6244 5.06869 17.6544 5.12934C17.6973 5.1885 17.7346 5.25205 17.7653 5.31919C17.8041 5.37618 17.8378 5.43696 17.8657 5.50087C17.9047 5.56037 17.9381 5.62384 17.9652 5.69054C18.0027 5.75084 18.0346 5.81501 18.0602 5.8823C18.0963 5.94351 18.1266 6.00847 18.1506 6.07647C18.1844 6.137 18.2127 6.20103 18.2349 6.26787C18.2689 6.33148 18.2969 6.39878 18.3182 6.46902C18.3493 6.53099 18.3747 6.59627 18.3939 6.6642C18.4242 6.72747 18.4486 6.79404 18.4666 6.86324C18.4973 6.93081 18.5214 7.00198 18.5382 7.07596C18.5645 7.13907 18.5851 7.20513 18.5995 7.27351C18.627 7.34207 18.6479 7.414 18.6613 7.48852C18.6855 7.55469 18.7037 7.6238 18.715 7.69518C18.7386 7.76331 18.7556 7.83444 18.7655 7.90784C18.7874 7.97651 18.8028 8.04807 18.811 8.12182C18.8313 8.19148 18.8451 8.26397 18.8515 8.33857C18.8696 8.4066 18.8815 8.47721 18.8863 8.54972C18.9044 8.62249 18.9152 8.69808 18.9181 8.77572C18.933 8.84459 18.9416 8.91584 18.9431 8.98882C18.9571 9.05927 18.9644 9.13211 18.9644 9.20666C18.9644 9.21002 18.9644 9.21338 18.9644 9.21673C18.9746 9.2774 18.98 9.33974 18.98 9.40333L18.98 9.40834L18.9799 9.41492C18.9799 9.421 18.9798 9.42708 18.9796 9.43315C18.9879 9.48792 18.9922 9.54401 18.9922 9.60111C18.9922 9.62187 18.9916 9.64249 18.9905 9.66297C18.996 9.70787 18.9989 9.7536 18.9989 9.8C18.9989 9.82946 18.9977 9.85865 18.9955 9.88753C18.9992 9.92452 19.0011 9.96203 19.0011 10C19.0011 10.6136 18.5036 11.1111 17.89 11.1111C17.2763 11.1111 16.7789 10.6136 16.7789 10C16.7789 9.97054 16.78 9.94135 16.7823 9.91247C16.7786 9.87548 16.7767 9.83796 16.7767 9.8C16.7767 9.77924 16.7772 9.75862 16.7784 9.73814C16.7728 9.69324 16.77 9.6475 16.77 9.60111C16.77 9.59114 16.7701 9.5812 16.7704 9.5713C16.7621 9.51652 16.7578 9.46043 16.7578 9.40333L16.7578 9.39649L16.7578 9.39327C16.7488 9.34006 16.7436 9.28556 16.7425 9.23006C16.7311 9.17292 16.7241 9.11421 16.7219 9.05427C16.7106 9.00199 16.7029 8.94835 16.6992 8.89361C16.6854 8.83776 16.6758 8.78025 16.6707 8.72143C16.6566 8.66847 16.6463 8.61395 16.6401 8.55818C16.6247 8.50547 16.6131 8.45114 16.6056 8.39549C16.5889 8.34314 16.576 8.2891 16.5672 8.2337C16.5489 8.18059 16.5344 8.12567 16.5243 8.06926C16.5062 8.01988 16.4915 7.96886 16.4805 7.91649C16.4589 7.8628 16.4415 7.80704 16.4285 7.74959C16.4087 7.70208 16.3921 7.6529 16.3789 7.60231C16.3561 7.55203 16.3369 7.49975 16.3217 7.4458C16.2976 7.39543 16.2771 7.34297 16.2607 7.28875C16.2369 7.24134 16.2165 7.192 16.1996 7.14102C16.1732 7.09173 16.1504 7.04023 16.1317 6.98686C16.1054 6.93987 16.0825 6.89079 16.0631 6.83992C16.0359 6.79366 16.0119 6.74526 15.9914 6.69502C15.9632 6.64958 15.9381 6.60196 15.9165 6.55246C15.8861 6.50605 15.8591 6.45724 15.8358 6.40636C15.8069 6.36388 15.7808 6.3193 15.7578 6.27287C15.7241 6.22647 15.694 6.17736 15.6677 6.12593C15.6371 6.08484 15.6092 6.04156 15.5844 5.99636C15.5496 5.9525 15.5181 5.90596 15.4901 5.85709C15.4579 5.81771 15.4283 5.77607 15.4016 5.73245C15.364 5.68934 15.3298 5.6433 15.2992 5.59472C15.2641 5.55543 15.2317 5.51363 15.2024 5.46962C15.1653 5.43022 15.1312 5.38812 15.1002 5.34365C15.0633 5.30609 15.0291 5.26593 14.9979 5.22346C14.9589 5.18575 14.9228 5.14521 14.8897 5.10219C14.85 5.0653 14.813 5.02554 14.779 4.98324C14.7386 4.94724 14.7008 4.90833 14.666 4.86684C14.6259 4.8326 14.5882 4.79556 14.5533 4.75601C14.5112 4.72192 14.4717 4.68481 14.435 4.64502C14.391 4.61086 14.3496 4.57346 14.3112 4.53319C14.269 4.5016 14.2292 4.46709 14.1919 4.42995C14.1488 4.39933 14.108 4.36571 14.0697 4.3294C14.0236 4.29839 13.9799 4.26403 13.9391 4.22664C13.8942 4.19758 13.8515 4.16537 13.8114 4.13032C13.7654 4.10212 13.7216 4.07066 13.6803 4.03626C13.6335 4.00898 13.5889 3.97838 13.5467 3.94478C13.4985 3.91805 13.4524 3.88784 13.4089 3.85449C13.3622 3.82982 13.3174 3.80192 13.2749 3.77107C13.2258 3.74682 13.1788 3.71905 13.1342 3.6881C13.0845 3.66484 13.0368 3.63801 12.9914 3.60793C12.941 3.58569 12.8926 3.55981 12.8466 3.53064C12.7974 3.51019 12.7501 3.48631 12.7049 3.45932C12.6506 3.43838 12.5983 3.41331 12.5485 3.38448C12.5012 3.36693 12.4553 3.34625 12.4112 3.32268C12.3556 3.30425 12.302 3.28154 12.2507 3.25495C12.1994 3.2387 12.1497 3.21882 12.1019 3.19562C12.0499 3.18065 11.9995 3.16199 11.951 3.13994C11.8963 3.12573 11.8432 3.10747 11.7922 3.08548C11.7383 3.07269 11.686 3.05599 11.6356 3.0357C11.5795 3.02376 11.5249 3.00759 11.4723 2.98754C11.4187 2.97717 11.3664 2.96295 11.3159 2.94518C11.2601 2.936 11.2058 2.92267 11.1532 2.90553C11.0982 2.8977 11.0445 2.88584 10.9924 2.87027C10.9344 2.86353 10.8779 2.85233 10.823 2.83703C10.7683 2.83175 10.7148 2.8225 10.6627 2.80957C10.604 2.80554 10.5466 2.79696 10.4908 2.78417C10.4335 2.78134 10.3774 2.77416 10.3227 2.76298C10.2668 2.76157 10.2119 2.75604 10.1583 2.74666L10.1556 2.74667C10.0963 2.74667 10.0381 2.74202 9.98133 2.73308C9.97852 2.73314 9.9757 2.73319 9.97288 2.73323C9.96785 2.7333 9.96282 2.73333 9.95778 2.73333C9.90935 2.73333 9.86165 2.73023 9.81486 2.72422C9.79668 2.72511 9.77839 2.72555 9.75999 2.72555C9.71777 2.72555 9.67609 2.7232 9.63509 2.71861Z" fill="url(#paint0_linear_2_2963)"/>
<path d="M9.47889 5.37352C9.45648 5.37487 9.43388 5.37555 9.41112 5.37555C9.40079 5.37555 9.3905 5.37541 9.38025 5.37513C9.34579 5.37835 9.31087 5.38 9.27557 5.38L9.26971 5.37998L9.26407 5.37994C9.22892 5.38381 9.19328 5.38604 9.15722 5.38655C9.12299 5.39119 9.08825 5.39427 9.0531 5.39571C9.01574 5.40175 8.97776 5.40592 8.93925 5.40814C8.90539 5.4142 8.871 5.41872 8.83616 5.42164C8.80273 5.42851 8.76875 5.43389 8.7343 5.43769C8.70125 5.44539 8.66764 5.45162 8.63354 5.4563C8.59724 5.46577 8.56021 5.47345 8.52256 5.47924C8.49075 5.48812 8.45836 5.49561 8.42547 5.50166C8.39077 5.51239 8.35534 5.52147 8.31928 5.5288C8.28497 5.54011 8.24992 5.5498 8.21422 5.55777C8.18583 5.56771 8.15691 5.57654 8.12752 5.5842C8.09126 5.59837 8.05406 5.61068 8.01606 5.62104C7.98559 5.63331 7.95446 5.64427 7.92273 5.65385C7.88992 5.66812 7.85629 5.68085 7.82193 5.69195C7.79333 5.70504 7.76407 5.71695 7.73423 5.72762C7.70123 5.74395 7.66731 5.75868 7.63256 5.77172C7.60213 5.78739 7.57089 5.8017 7.53891 5.81457C7.51173 5.82935 7.48386 5.84303 7.45537 5.85554C7.42361 5.8741 7.39085 5.89113 7.35718 5.90653C7.32826 5.92405 7.29847 5.94029 7.2679 5.95518C7.23973 5.97315 7.2107 5.98988 7.18088 6.00531C7.15036 6.0258 7.11877 6.04482 7.0862 6.06227C7.06028 6.08026 7.03356 6.09718 7.0061 6.11296C6.97855 6.13325 6.95003 6.15231 6.92062 6.17004C6.89373 6.19079 6.86587 6.21035 6.83711 6.22861C6.8084 6.25176 6.77853 6.27352 6.74758 6.29377C6.72562 6.31202 6.70295 6.32944 6.67961 6.34598C6.65165 6.37101 6.62241 6.39464 6.592 6.41677C6.56614 6.44049 6.53915 6.46301 6.51113 6.48422C6.48888 6.50543 6.46576 6.52573 6.44183 6.54505C6.41721 6.56998 6.39143 6.59375 6.36456 6.61628C6.34019 6.64193 6.31461 6.66642 6.2879 6.68966C6.26568 6.71396 6.24238 6.73727 6.2181 6.75952C6.19502 6.78601 6.17071 6.8114 6.14524 6.83559C6.12568 6.85893 6.10517 6.88145 6.08378 6.9031C6.06188 6.93095 6.03867 6.95772 6.01425 6.98332C5.99302 7.01138 5.97048 7.03839 5.94673 7.06428C5.92573 7.09313 5.90338 7.12093 5.87976 7.14759C5.86105 7.17431 5.84121 7.20017 5.82028 7.22509C5.80202 7.25266 5.78255 7.27937 5.76197 7.30514C5.74333 7.33485 5.72333 7.36362 5.70205 7.39135C5.68491 7.41988 5.66653 7.44758 5.64697 7.47437C5.63038 7.5036 5.6125 7.532 5.59341 7.5595C5.57595 7.59209 5.55692 7.62371 5.5364 7.65426C5.52099 7.68404 5.50427 7.71305 5.48633 7.74118C5.47272 7.76913 5.45798 7.79643 5.44216 7.82301C5.42762 7.85543 5.41158 7.88702 5.39412 7.91771C5.38021 7.95042 5.36478 7.98233 5.34791 8.01335C5.33463 8.04636 5.31981 8.07859 5.30354 8.10995C5.29125 8.1423 5.27749 8.17394 5.26235 8.20476C5.25134 8.23593 5.23897 8.26647 5.22532 8.29629C5.21516 8.32775 5.20363 8.3586 5.19081 8.38876C5.17978 8.42638 5.16681 8.46316 5.15203 8.49901C5.14302 8.53107 5.1326 8.56255 5.12086 8.59337C5.11287 8.62507 5.10352 8.65623 5.09288 8.68678C5.0848 8.72348 5.0749 8.7595 5.06328 8.79474C5.05657 8.82777 5.04839 8.86026 5.03882 8.89216C5.03251 8.92809 5.02449 8.96343 5.01482 8.99809C5.0095 9.03264 5.0026 9.06666 4.99418 9.10008C4.98938 9.1373 4.98275 9.17393 4.97436 9.2099C4.97056 9.24435 4.96518 9.27832 4.95831 9.31175C4.95539 9.34654 4.95088 9.38088 4.94483 9.41469C4.9428 9.44999 4.93913 9.48486 4.93388 9.51921C4.93265 9.55801 4.92943 9.5963 4.92432 9.634C4.92377 9.66965 4.92155 9.70489 4.91772 9.73965C4.91777 9.74383 4.91779 9.74802 4.91779 9.75222C4.91779 9.78438 4.91642 9.81623 4.91375 9.8477C4.91422 9.861 4.91445 9.87436 4.91445 9.88777C4.91445 9.91366 4.91357 9.93935 4.91183 9.96479C4.91283 9.98418 4.91334 10.0037 4.91334 10.0233C4.91334 10.0367 4.91311 10.0501 4.91263 10.0634C4.91531 10.0949 4.91668 10.1267 4.91668 10.1589C4.91668 10.1606 4.91668 10.1624 4.91667 10.1642C4.91666 10.1656 4.91665 10.167 4.91664 10.1684C4.9166 10.1725 4.91655 10.1766 4.91647 10.1806C4.9197 10.2124 4.92159 10.2445 4.92209 10.277C4.92722 10.3148 4.93044 10.3531 4.93167 10.392C4.93736 10.4293 4.9412 10.4671 4.94309 10.5055C4.94846 10.537 4.9525 10.569 4.95515 10.6013C4.96254 10.6374 4.96819 10.6741 4.97199 10.7114C4.9794 10.7444 4.98534 10.7781 4.98973 10.8121C4.99887 10.8484 5.00623 10.8854 5.0117 10.923C5.02029 10.9548 5.0275 10.9872 5.03326 11.0201C5.04395 11.0557 5.05289 11.092 5.06001 11.129C5.07018 11.161 5.07895 11.1935 5.08625 11.2267C5.09688 11.2572 5.10621 11.2883 5.11419 11.32C5.12801 11.3562 5.13998 11.3934 5.15 11.4314C5.16136 11.4603 5.17155 11.4898 5.1805 11.5198C5.19546 11.5544 5.20872 11.59 5.22015 11.6264C5.23295 11.6549 5.24458 11.6841 5.25497 11.7139C5.2697 11.7444 5.28308 11.7755 5.29505 11.8074C5.31202 11.8403 5.32739 11.8742 5.34106 11.909C5.35701 11.9389 5.37164 11.9696 5.38485 12.0011C5.40079 12.0293 5.41553 12.0583 5.42901 12.088C5.44649 12.1171 5.46267 12.1471 5.47748 12.1779C5.49699 12.2088 5.51502 12.2406 5.53148 12.2734C5.54819 12.299 5.56388 12.3252 5.57849 12.3522C5.60119 12.3846 5.6222 12.4182 5.6414 12.453C5.65807 12.4765 5.67386 12.5006 5.68872 12.5253C5.71123 12.5546 5.73231 12.5851 5.75185 12.6167C5.77125 12.6412 5.78964 12.6666 5.80695 12.6927C5.83103 12.7214 5.85369 12.7513 5.87482 12.7823C5.89598 12.8069 5.91608 12.8325 5.93505 12.8589C5.95738 12.8834 5.97862 12.909 5.9987 12.9356C6.02312 12.9612 6.04632 12.9879 6.06823 13.0158C6.0912 13.039 6.11314 13.0633 6.134 13.0885C6.15927 13.1128 6.18338 13.1383 6.20626 13.1649C6.23038 13.1873 6.25351 13.2107 6.27558 13.2351C6.30032 13.2569 6.32408 13.2798 6.34678 13.3037C6.3756 13.3279 6.40318 13.3535 6.42941 13.3804C6.45296 13.3997 6.47571 13.4199 6.4976 13.441C6.52581 13.4626 6.55295 13.4855 6.57893 13.5097C6.60511 13.529 6.63041 13.5494 6.65477 13.5709C6.68392 13.5913 6.71205 13.6131 6.73907 13.6361C6.76675 13.6547 6.79355 13.6745 6.81939 13.6954C6.84918 13.7144 6.87802 13.7348 6.90579 13.7564C6.93335 13.7733 6.96013 13.7912 6.98604 13.8103C7.01735 13.8283 7.0477 13.8478 7.07699 13.8686C7.10406 13.8836 7.13044 13.8996 7.15608 13.9167C7.19147 13.9347 7.22577 13.9547 7.25884 13.9763C7.28641 13.9902 7.31333 14.0051 7.33953 14.0211C7.37042 14.0354 7.40054 14.0511 7.42981 14.0681C7.46261 14.0823 7.49459 14.0981 7.52565 14.1153C7.55593 14.1277 7.58554 14.1415 7.61441 14.1565C7.64776 14.1691 7.68034 14.1834 7.71206 14.1991C7.7457 14.2111 7.77858 14.2247 7.81062 14.2398C7.84081 14.2499 7.87042 14.2613 7.89939 14.2739C7.93409 14.2844 7.96808 14.2965 8.00125 14.3102C8.03629 14.3201 8.07064 14.3316 8.10418 14.3447C8.13658 14.3531 8.1684 14.363 8.19957 14.3742C8.23532 14.3825 8.2704 14.3925 8.30473 14.4041C8.33776 14.4111 8.37025 14.4196 8.40213 14.4294C8.43549 14.4356 8.46833 14.4432 8.50058 14.4522C8.53739 14.458 8.5736 14.4655 8.60912 14.4748C8.64633 14.4799 8.68294 14.4869 8.71888 14.4956C8.75337 14.4996 8.78738 14.5053 8.82083 14.5125C8.8559 14.5157 8.89049 14.5206 8.92453 14.527C8.95921 14.5293 8.99345 14.5332 9.02718 14.5387C9.06289 14.5401 9.09816 14.5432 9.13293 14.5479C9.17172 14.5485 9.21002 14.5511 9.24775 14.5556L9.25001 14.5556C9.28531 14.5556 9.32022 14.5572 9.35468 14.5604C9.36494 14.5601 9.37523 14.56 9.38556 14.56C9.41145 14.56 9.43714 14.5609 9.46258 14.5626C9.48197 14.5616 9.50148 14.5611 9.52112 14.5611C9.54275 14.5611 9.56424 14.5617 9.58556 14.5629C9.60689 14.5617 9.62838 14.5611 9.65001 14.5611C9.67183 14.5611 9.6935 14.5617 9.71501 14.563C9.73652 14.5617 9.75819 14.5611 9.78001 14.5611C9.80164 14.5611 9.82313 14.5617 9.84445 14.5629C9.86578 14.5617 9.88726 14.5611 9.90889 14.5611C9.93053 14.5611 9.95201 14.5617 9.97334 14.5629C9.99467 14.5617 10.0162 14.5611 10.0378 14.5611C10.0596 14.5611 10.0813 14.5617 10.1028 14.563C10.1243 14.5617 10.146 14.5611 10.1678 14.5611C10.1894 14.5611 10.2109 14.5617 10.2322 14.5629C10.2536 14.5617 10.275 14.5611 10.2967 14.5611C10.3185 14.5611 10.3402 14.5617 10.3617 14.563C10.3832 14.5617 10.4049 14.5611 10.4267 14.5611C10.4483 14.5611 10.4698 14.5617 10.4911 14.5629C10.5124 14.5617 10.5339 14.5611 10.5556 14.5611C10.5772 14.5611 10.5987 14.5617 10.62 14.5629C10.6413 14.5617 10.6628 14.5611 10.6844 14.5611C10.7063 14.5611 10.7279 14.5617 10.7495 14.563C10.771 14.5617 10.7926 14.5611 10.8145 14.5611C10.8361 14.5611 10.8576 14.5617 10.8789 14.5629C10.9002 14.5617 10.9217 14.5611 10.9433 14.5611C10.9652 14.5611 10.9868 14.5617 11.0083 14.563C11.0298 14.5617 11.0515 14.5611 11.0733 14.5611C11.095 14.5611 11.1165 14.5617 11.1378 14.5629C11.1591 14.5617 11.1806 14.5611 11.2022 14.5611C11.2239 14.5611 11.2453 14.5617 11.2667 14.5629C11.288 14.5617 11.3095 14.5611 11.3311 14.5611C11.3529 14.5611 11.3746 14.5617 11.3961 14.563C11.4176 14.5617 11.4393 14.5611 11.4611 14.5611C11.4828 14.5611 11.5042 14.5617 11.5256 14.5629C11.5469 14.5617 11.5684 14.5611 11.59 14.5611C11.6116 14.5611 11.6331 14.5617 11.6545 14.5629C11.6758 14.5617 11.6973 14.5611 11.7189 14.5611C11.7407 14.5611 11.7624 14.5617 11.7839 14.563C11.8054 14.5617 11.8271 14.5611 11.8489 14.5611C11.8705 14.5611 11.892 14.5617 11.9133 14.5629C11.9347 14.5617 11.9562 14.5611 11.9778 14.5611C11.9996 14.5611 12.0213 14.5617 12.0428 14.563C12.0643 14.5617 12.086 14.5611 12.1078 14.5611C12.1294 14.5611 12.1509 14.5617 12.1722 14.5629C12.1936 14.5617 12.215 14.5611 12.2367 14.5611C12.2583 14.5611 12.2798 14.5617 12.3011 14.5629C12.3224 14.5617 12.3439 14.5611 12.3656 14.5611C12.3874 14.5611 12.4091 14.5617 12.4306 14.563C12.4521 14.5617 12.4737 14.5611 12.4956 14.5611C12.5172 14.5611 12.5387 14.5617 12.56 14.5629C12.5813 14.5617 12.6028 14.5611 12.6245 14.5611C12.6463 14.5611 12.6679 14.5617 12.6895 14.563C12.711 14.5617 12.7326 14.5611 12.7544 14.5611C12.7761 14.5611 12.7976 14.5617 12.8189 14.5629C12.8402 14.5617 12.8617 14.5611 12.8833 14.5611C12.905 14.5611 12.9265 14.5617 12.9478 14.5629C12.9691 14.5617 12.9906 14.5611 13.0122 14.5611C13.0341 14.5611 13.0557 14.5617 13.0772 14.563C13.0987 14.5617 13.1204 14.5611 13.1422 14.5611C13.1639 14.5611 13.1854 14.5617 13.2067 14.5629C13.228 14.5617 13.2495 14.5611 13.2711 14.5611C13.2929 14.5611 13.3146 14.5617 13.3361 14.563C13.3576 14.5617 13.3793 14.5611 13.4011 14.5611C13.4228 14.5611 13.4442 14.5617 13.4656 14.5629C13.4869 14.5617 13.5084 14.5611 13.53 14.5611C13.5516 14.5611 13.5731 14.5617 13.5945 14.5629C13.6158 14.5617 13.6373 14.5611 13.6589 14.5611C13.6807 14.5611 13.7024 14.5617 13.7239 14.563C13.7454 14.5617 13.7671 14.5611 13.7889 14.5611C13.8105 14.5611 13.832 14.5617 13.8533 14.5629C13.8747 14.5617 13.8962 14.5611 13.9178 14.5611C13.9394 14.5611 13.9609 14.5617 13.9822 14.5629C14.0036 14.5617 14.025 14.5611 14.0467 14.5611C14.0685 14.5611 14.0902 14.5617 14.1117 14.563C14.1332 14.5617 14.1549 14.5611 14.1767 14.5611C14.1983 14.5611 14.2198 14.5617 14.2411 14.5629C14.2624 14.5617 14.2839 14.5611 14.3056 14.5611C14.3274 14.5611 14.3491 14.5617 14.3706 14.563C14.3921 14.5617 14.4137 14.5611 14.4356 14.5611C14.4572 14.5611 14.4787 14.5617 14.5 14.5629C14.5213 14.5617 14.5428 14.5611 14.5645 14.5611C14.5861 14.5611 14.6076 14.5617 14.6289 14.5629C14.6502 14.5617 14.6717 14.5611 14.6933 14.5611C14.7152 14.5611 14.7368 14.5617 14.7583 14.563C14.7799 14.5617 14.8015 14.5611 14.8233 14.5611C14.845 14.5611 14.8665 14.5617 14.8878 14.5629C14.9091 14.5617 14.9306 14.5611 14.9522 14.5611C14.974 14.5611 14.9957 14.5617 15.0172 14.563C15.0387 14.5617 15.0604 14.5611 15.0822 14.5611C15.1039 14.5611 15.1254 14.5617 15.1467 14.5629C15.168 14.5617 15.1895 14.5611 15.2111 14.5611C15.8248 14.5611 16.3222 15.0586 16.3222 15.6722C16.3222 16.2859 15.8248 16.7833 15.2111 16.7833C15.1895 16.7833 15.168 16.7827 15.1467 16.7815C15.1254 16.7827 15.1039 16.7833 15.0822 16.7833C15.0604 16.7833 15.0387 16.7827 15.0172 16.7815C14.9957 16.7827 14.974 16.7833 14.9522 16.7833C14.9306 16.7833 14.9091 16.7827 14.8878 16.7815C14.8665 16.7827 14.845 16.7833 14.8233 16.7833C14.8015 16.7833 14.7799 16.7827 14.7583 16.7815C14.7368 16.7827 14.7152 16.7833 14.6933 16.7833C14.6717 16.7833 14.6502 16.7827 14.6289 16.7815C14.6076 16.7827 14.5861 16.7833 14.5645 16.7833C14.5428 16.7833 14.5213 16.7827 14.5 16.7815C14.4787 16.7827 14.4572 16.7833 14.4356 16.7833C14.4137 16.7833 14.3921 16.7827 14.3706 16.7815C14.3491 16.7827 14.3274 16.7833 14.3056 16.7833C14.2839 16.7833 14.2624 16.7827 14.2411 16.7815C14.2198 16.7827 14.1983 16.7833 14.1767 16.7833C14.1549 16.7833 14.1332 16.7827 14.1117 16.7815C14.0902 16.7827 14.0685 16.7833 14.0467 16.7833C14.025 16.7833 14.0036 16.7827 13.9822 16.7815C13.9609 16.7827 13.9394 16.7833 13.9178 16.7833C13.8962 16.7833 13.8747 16.7827 13.8533 16.7815C13.832 16.7827 13.8105 16.7833 13.7889 16.7833C13.7671 16.7833 13.7454 16.7827 13.7239 16.7815C13.7024 16.7827 13.6807 16.7833 13.6589 16.7833C13.6373 16.7833 13.6158 16.7827 13.5945 16.7815C13.5731 16.7827 13.5516 16.7833 13.53 16.7833C13.5084 16.7833 13.4869 16.7827 13.4656 16.7815C13.4442 16.7827 13.4228 16.7833 13.4011 16.7833C13.3793 16.7833 13.3576 16.7827 13.3361 16.7815C13.3146 16.7827 13.2929 16.7833 13.2711 16.7833C13.2495 16.7833 13.228 16.7827 13.2067 16.7815C13.1854 16.7827 13.1639 16.7833 13.1422 16.7833C13.1204 16.7833 13.0987 16.7827 13.0772 16.7815C13.0557 16.7827 13.0341 16.7833 13.0122 16.7833C12.9906 16.7833 12.9691 16.7827 12.9478 16.7815C12.9265 16.7827 12.905 16.7833 12.8833 16.7833C12.8617 16.7833 12.8402 16.7827 12.8189 16.7815C12.7976 16.7827 12.7761 16.7833 12.7544 16.7833C12.7326 16.7833 12.711 16.7827 12.6895 16.7815C12.6679 16.7827 12.6463 16.7833 12.6245 16.7833C12.6028 16.7833 12.5813 16.7827 12.56 16.7815C12.5387 16.7827 12.5172 16.7833 12.4956 16.7833C12.4737 16.7833 12.4521 16.7827 12.4306 16.7815C12.4091 16.7827 12.3874 16.7833 12.3656 16.7833C12.3439 16.7833 12.3224 16.7827 12.3011 16.7815C12.2798 16.7827 12.2583 16.7833 12.2367 16.7833C12.215 16.7833 12.1936 16.7827 12.1722 16.7815C12.1509 16.7827 12.1294 16.7833 12.1078 16.7833C12.086 16.7833 12.0643 16.7827 12.0428 16.7815C12.0213 16.7827 11.9996 16.7833 11.9778 16.7833C11.9562 16.7833 11.9347 16.7827 11.9133 16.7815C11.892 16.7827 11.8705 16.7833 11.8489 16.7833C11.8271 16.7833 11.8054 16.7827 11.7839 16.7815C11.7624 16.7827 11.7407 16.7833 11.7189 16.7833C11.6973 16.7833 11.6758 16.7827 11.6545 16.7815C11.6331 16.7827 11.6116 16.7833 11.59 16.7833C11.5684 16.7833 11.5469 16.7827 11.5256 16.7815C11.5042 16.7827 11.4828 16.7833 11.4611 16.7833C11.4393 16.7833 11.4176 16.7827 11.3961 16.7815C11.3746 16.7827 11.3529 16.7833 11.3311 16.7833C11.3095 16.7833 11.288 16.7827 11.2667 16.7815C11.2453 16.7827 11.2239 16.7833 11.2022 16.7833C11.1806 16.7833 11.1591 16.7827 11.1378 16.7815C11.1165 16.7827 11.095 16.7833 11.0733 16.7833C11.0515 16.7833 11.0298 16.7827 11.0083 16.7815C10.9868 16.7827 10.9652 16.7833 10.9433 16.7833C10.9217 16.7833 10.9002 16.7827 10.8789 16.7815C10.8576 16.7827 10.8361 16.7833 10.8145 16.7833C10.7926 16.7833 10.771 16.7827 10.7495 16.7815C10.7279 16.7827 10.7063 16.7833 10.6844 16.7833C10.6628 16.7833 10.6413 16.7827 10.62 16.7815C10.5987 16.7827 10.5772 16.7833 10.5556 16.7833C10.5339 16.7833 10.5124 16.7827 10.4911 16.7815C10.4698 16.7827 10.4483 16.7833 10.4267 16.7833C10.4049 16.7833 10.3832 16.7827 10.3617 16.7815C10.3402 16.7827 10.3185 16.7833 10.2967 16.7833C10.275 16.7833 10.2536 16.7827 10.2322 16.7815C10.2109 16.7827 10.1894 16.7833 10.1678 16.7833C10.146 16.7833 10.1243 16.7827 10.1028 16.7815C10.0813 16.7827 10.0596 16.7833 10.0378 16.7833C10.0162 16.7833 9.99467 16.7827 9.97334 16.7815C9.95201 16.7827 9.93053 16.7833 9.90889 16.7833C9.88726 16.7833 9.86578 16.7827 9.84445 16.7815C9.82313 16.7827 9.80164 16.7833 9.78001 16.7833C9.75819 16.7833 9.73652 16.7827 9.71501 16.7815C9.6935 16.7827 9.67183 16.7833 9.65001 16.7833C9.62838 16.7833 9.60689 16.7827 9.58556 16.7815C9.56424 16.7827 9.54275 16.7833 9.52112 16.7833C9.49523 16.7833 9.46955 16.7824 9.4441 16.7807C9.42472 16.7817 9.4052 16.7822 9.38556 16.7822C9.35027 16.7822 9.31536 16.7806 9.2809 16.7774C9.27064 16.7776 9.26034 16.7778 9.25001 16.7778C9.20528 16.7778 9.16118 16.7751 9.11783 16.77L9.11556 16.77C9.06445 16.77 9.01415 16.7665 8.96487 16.7599C8.91018 16.759 8.85646 16.7542 8.80396 16.7458C8.7489 16.7436 8.69487 16.7374 8.64216 16.7275C8.58817 16.7238 8.53524 16.7163 8.48364 16.7053C8.42936 16.7003 8.37622 16.6914 8.32448 16.6789C8.27364 16.6729 8.22385 16.6634 8.17535 16.6507C8.12481 16.6438 8.07535 16.6335 8.02721 16.62C7.97386 16.6116 7.92177 16.5995 7.87122 16.5839C7.8182 16.5741 7.76651 16.5606 7.71641 16.5436C7.66683 16.5331 7.61847 16.5193 7.57157 16.5025C7.51925 16.4903 7.46835 16.4745 7.41916 16.4553C7.37023 16.4426 7.32261 16.4266 7.27654 16.4076C7.22796 16.3939 7.18072 16.377 7.13508 16.3572C7.08295 16.3415 7.03243 16.322 6.98385 16.2991C6.93629 16.2831 6.89017 16.264 6.84573 16.242C6.79858 16.2252 6.7529 16.2052 6.70894 16.1824C6.65933 16.1636 6.61141 16.1413 6.56548 16.1158C6.51911 16.0967 6.47431 16.0746 6.43133 16.0497C6.38407 16.0292 6.33852 16.0055 6.29494 15.9789C6.24571 15.9561 6.19842 15.9298 6.15341 15.9003C6.11285 15.88 6.0737 15.8572 6.03617 15.8322C5.98778 15.8075 5.94145 15.7793 5.89749 15.748C5.85491 15.7245 5.81403 15.6983 5.77509 15.6697C5.72974 15.6436 5.68639 15.6144 5.64535 15.5825C5.60294 15.5566 5.5624 15.5279 5.52397 15.4968C5.48044 15.469 5.43897 15.4384 5.39984 15.405C5.3593 15.3778 5.32066 15.3479 5.28415 15.3157C5.2416 15.286 5.20123 15.2533 5.16333 15.2181C5.12392 15.189 5.0865 15.1574 5.05132 15.1235C5.00852 15.0907 4.96817 15.0548 4.93061 15.0163C4.89432 14.9866 4.85994 14.9547 4.82768 14.9207C4.78826 14.8877 4.75116 14.8519 4.71667 14.8138C4.67804 14.7797 4.64179 14.743 4.60822 14.704C4.57223 14.6706 4.53846 14.6349 4.50714 14.5971C4.47022 14.5615 4.43576 14.5234 4.40403 14.4831C4.36966 14.4483 4.33757 14.4113 4.308 14.3722C4.27248 14.335 4.23952 14.2953 4.20941 14.2534C4.17451 14.2149 4.14227 14.174 4.11298 14.131C4.08261 14.0957 4.05442 14.0585 4.02862 14.0195C3.99438 13.9787 3.96301 13.9355 3.93483 13.89C3.90532 13.8527 3.87814 13.8134 3.85353 13.7725C3.81965 13.7283 3.78901 13.6815 3.76197 13.6325C3.73589 13.5959 3.71197 13.5576 3.69042 13.5178C3.65952 13.4737 3.63175 13.4273 3.60743 13.3788C3.58093 13.3383 3.55701 13.296 3.53589 13.2521C3.50872 13.2091 3.48442 13.1642 3.46325 13.1175C3.43625 13.0726 3.41235 13.0255 3.39184 12.9767C3.3667 12.9322 3.34454 12.8857 3.32563 12.8377C3.30305 12.7953 3.28312 12.7513 3.26608 12.7059C3.24258 12.6603 3.22214 12.6129 3.20505 12.5638C3.18168 12.5156 3.16171 12.4654 3.14542 12.4136C3.12581 12.3699 3.10896 12.3246 3.09507 12.278C3.07338 12.2278 3.05529 12.1757 3.04112 12.122C3.02404 12.0785 3.00962 12.0337 2.99805 11.9878C2.97891 11.9376 2.96331 11.8856 2.95156 11.8322C2.93414 11.7822 2.9202 11.7306 2.91002 11.6776C2.89509 11.6308 2.88319 11.5826 2.87454 11.5333C2.85912 11.4819 2.84731 11.4289 2.83942 11.3747C2.82653 11.327 2.81674 11.2779 2.81029 11.2279C2.79734 11.1765 2.78798 11.1237 2.78247 11.0697C2.77136 11.0202 2.76356 10.9694 2.75932 10.9176C2.74808 10.8627 2.74088 10.8064 2.73805 10.749C2.72959 10.6993 2.72443 10.6485 2.7228 10.5969C2.71523 10.5473 2.71094 10.4967 2.71015 10.4452C2.70346 10.3959 2.7 10.3456 2.7 10.2944C2.7 10.2872 2.70007 10.2799 2.70021 10.2727C2.69641 10.2353 2.69446 10.1973 2.69446 10.1589C2.69446 10.1455 2.6947 10.1321 2.69517 10.1188C2.69249 10.0873 2.69112 10.0555 2.69112 10.0233C2.69112 9.99744 2.69201 9.97176 2.69375 9.94631C2.69274 9.92693 2.69223 9.90741 2.69223 9.88777C2.69223 9.85561 2.6936 9.82376 2.69628 9.79229C2.69581 9.77899 2.69557 9.76563 2.69557 9.75222C2.69557 9.71065 2.69785 9.66962 2.7023 9.62924C2.70225 9.62505 2.70223 9.62086 2.70223 9.61666C2.70223 9.56556 2.70568 9.51527 2.71236 9.466C2.71315 9.41445 2.71745 9.36374 2.72503 9.31412C2.72677 9.25935 2.73247 9.20558 2.74186 9.15308C2.74499 9.09847 2.75207 9.04491 2.76282 8.99269C2.76736 8.93839 2.77581 8.88521 2.78788 8.83342C2.79349 8.78263 2.80252 8.73286 2.81474 8.68436C2.82159 8.63116 2.83221 8.57914 2.84632 8.52857C2.85418 8.47747 2.86552 8.42751 2.8801 8.37895C2.88939 8.32596 2.90244 8.27426 2.91896 8.22414C2.92891 8.17517 2.94209 8.12738 2.95825 8.08099C2.97001 8.02762 2.9856 7.9757 3.00472 7.92552C3.01781 7.87357 3.03455 7.82307 3.05466 7.77431C3.06748 7.7287 3.08314 7.68427 3.10144 7.64123C3.11644 7.59006 3.13503 7.54041 3.15692 7.49259C3.17333 7.44177 3.19331 7.39256 3.21655 7.34523C3.23371 7.29668 3.25415 7.24968 3.2776 7.20449C3.29537 7.15769 3.31621 7.1124 3.33988 7.06887C3.35856 7.02245 3.38028 6.97758 3.40479 6.93451C3.42436 6.88848 3.44695 6.84403 3.47231 6.80143C3.49453 6.75186 3.52029 6.70421 3.54925 6.65881C3.57176 6.61256 3.59738 6.56812 3.62584 6.52574C3.64793 6.48304 3.67271 6.44195 3.69995 6.40271C3.7243 6.35725 3.75172 6.31369 3.78194 6.27229C3.80732 6.22757 3.83572 6.18478 3.86686 6.1442C3.89236 6.10175 3.92062 6.06115 3.95138 6.02263C3.97872 5.97904 4.00901 5.93748 4.04195 5.89823C4.07073 5.85479 4.10249 5.81349 4.13692 5.77462C4.16505 5.73444 4.19577 5.69621 4.22884 5.66016C4.2579 5.62024 4.28955 5.58232 4.32355 5.54667C4.35312 5.50761 4.38521 5.47056 4.41958 5.43578C4.45286 5.39348 4.48914 5.35365 4.5281 5.31663C4.55961 5.27905 4.59355 5.24358 4.62969 5.21048C4.6635 5.17167 4.69996 5.13523 4.73879 5.10145C4.77204 5.06509 4.80768 5.03094 4.84546 4.99927C4.8793 4.96365 4.91548 4.93027 4.95375 4.89939C4.99135 4.8613 5.03169 4.82591 5.07444 4.79355C5.11012 4.75952 5.14806 4.72785 5.18801 4.69878C5.22244 4.6672 5.25886 4.63776 5.29707 4.61068C5.33874 4.57338 5.38324 4.53918 5.43022 4.50845C5.46663 4.47818 5.50501 4.4502 5.54513 4.42471C5.58444 4.39301 5.62595 4.36392 5.6694 4.33773C5.70922 4.30699 5.75118 4.27889 5.79503 4.2537C5.83759 4.22235 5.88247 4.19396 5.92936 4.16883C5.96863 4.14158 6.00974 4.11679 6.05246 4.09469C6.09481 4.06625 6.13923 4.04064 6.18544 4.01815C6.22856 3.99064 6.2737 3.96602 6.3206 3.94458C6.36176 3.91964 6.40466 3.8973 6.44909 3.87778C6.4955 3.85066 6.54406 3.82681 6.59444 3.80654C6.63923 3.78218 6.68588 3.76082 6.73412 3.74272C6.77719 3.72053 6.82189 3.70108 6.868 3.68459C6.91616 3.66077 6.96629 3.64033 7.01809 3.6236C7.0633 3.6029 7.11015 3.58515 7.15839 3.57059C7.2067 3.54958 7.25681 3.5319 7.3084 3.51784C7.35181 3.50036 7.39658 3.48553 7.4425 3.47357C7.49441 3.45329 7.54821 3.4368 7.60358 3.42445C7.65053 3.408 7.69893 3.39461 7.74852 3.38452C7.79587 3.36891 7.84463 3.3564 7.89456 3.34722C7.94589 3.33134 7.9988 3.31909 8.05301 3.31075C8.10073 3.29744 8.14973 3.28723 8.1998 3.28036C8.25116 3.26696 8.30397 3.25714 8.35794 3.25119C8.40973 3.23912 8.4629 3.23068 8.51719 3.22613C8.56936 3.2154 8.62287 3.20833 8.67743 3.20519C8.72658 3.19639 8.77686 3.19083 8.82803 3.18873C8.88104 3.18016 8.93532 3.17534 8.99057 3.17455C9.0398 3.16789 9.09006 3.16444 9.14112 3.16444C9.14496 3.16444 9.14879 3.16446 9.15262 3.1645C9.19299 3.16006 9.23401 3.15777 9.27557 3.15777C9.28589 3.15777 9.29618 3.15792 9.30644 3.1582C9.3409 3.15498 9.37582 3.15333 9.41112 3.15333C9.43388 3.15333 9.45648 3.15401 9.47889 3.15536C9.50131 3.15401 9.52391 3.15333 9.54667 3.15333C9.57582 3.15333 9.60472 3.15445 9.63331 3.15666C9.64989 3.15592 9.66658 3.15555 9.68335 3.15555C9.72174 3.15555 9.75967 3.1575 9.79706 3.1613C9.80395 3.16117 9.81086 3.16111 9.81779 3.16111C9.86568 3.16111 9.91286 3.16414 9.95916 3.17002C10.0143 3.17035 10.0684 3.1747 10.1214 3.18278C10.173 3.18442 10.2238 3.18958 10.2734 3.19803C10.328 3.20072 10.3815 3.20735 10.4337 3.21762C10.4877 3.2217 10.5405 3.22962 10.5921 3.24113C10.6436 3.2463 10.6941 3.25498 10.7433 3.26693C10.7965 3.27335 10.8486 3.28352 10.8992 3.29719C10.9529 3.305 11.0053 3.31664 11.0562 3.33184C11.107 3.34063 11.1567 3.35287 11.2049 3.36832C11.2569 3.37845 11.3076 3.39221 11.3567 3.40933C11.4063 3.42025 11.4547 3.43449 11.5016 3.4518C11.5547 3.46455 11.6062 3.48111 11.6561 3.50118C11.7047 3.51442 11.752 3.53088 11.7977 3.55031C11.845 3.56419 11.891 3.58113 11.9355 3.60091C11.9876 3.61709 12.0381 3.63701 12.0866 3.66035C12.1352 3.67709 12.1823 3.69711 12.2275 3.72014C12.2732 3.73709 12.3175 3.75696 12.3601 3.77952C12.4109 3.79924 12.4598 3.82258 12.5066 3.84922C12.5526 3.86879 12.5971 3.89138 12.6397 3.91675C12.6853 3.9372 12.7293 3.96065 12.7714 3.98683C12.818 4.0088 12.8628 4.03391 12.9055 4.06188C12.95 4.0842 12.9927 4.10941 13.0335 4.13728C13.0816 4.16256 13.1275 4.19126 13.1711 4.22305C13.2119 4.24621 13.2511 4.27189 13.2884 4.29986C13.3352 4.32716 13.3798 4.35778 13.4218 4.39139C13.4616 4.41631 13.4996 4.44367 13.5358 4.47327C13.5812 4.50257 13.6244 4.53509 13.6649 4.57052C13.7035 4.59715 13.7403 4.62616 13.7752 4.65734C13.8193 4.6886 13.861 4.723 13.9 4.76022C13.9391 4.78978 13.9761 4.82187 14.0109 4.85623C14.0496 4.88666 14.0862 4.91959 14.1205 4.95479C14.1604 4.9874 14.1979 5.02273 14.2329 5.0605C14.2719 5.09404 14.3086 5.13023 14.3426 5.16881C14.379 5.20174 14.4133 5.23704 14.4451 5.27449C14.4807 5.30798 14.5142 5.34381 14.5452 5.38172C14.582 5.41762 14.6164 5.45607 14.648 5.49677C14.684 5.53359 14.7175 5.5729 14.7481 5.61442C14.7834 5.65233 14.816 5.6927 14.8458 5.73526C14.878 5.77177 14.9078 5.81041 14.9351 5.85096C14.967 5.8885 14.9966 5.9282 15.0234 5.96981C15.0559 6.00946 15.0857 6.0514 15.1125 6.09535C15.1428 6.13432 15.1707 6.17536 15.1957 6.21823C15.2264 6.25922 15.2543 6.3024 15.2792 6.34749C15.3079 6.38782 15.334 6.43014 15.3572 6.47422C15.3875 6.5187 15.4147 6.56549 15.4385 6.61428C15.4637 6.65373 15.4864 6.69488 15.5065 6.73751C15.5342 6.78196 15.5587 6.82849 15.58 6.87683C15.6057 6.92084 15.6285 6.96678 15.6481 7.01438C15.6714 7.05654 15.6921 7.10038 15.7099 7.14567C15.7358 7.19423 15.7582 7.24493 15.7768 7.29745C15.7982 7.34102 15.8168 7.3862 15.8325 7.43275C15.8536 7.47758 15.8718 7.52404 15.8868 7.57191C15.9088 7.62093 15.9273 7.67184 15.942 7.72431C15.961 7.77038 15.977 7.818 15.9898 7.86694C16.009 7.91613 16.0248 7.96702 16.0369 8.01933C16.0538 8.06622 16.0676 8.11457 16.0781 8.16414C16.0941 8.21146 16.1071 8.2602 16.1167 8.31013C16.1328 8.36063 16.1453 8.41269 16.1541 8.46604C16.1689 8.51699 16.1801 8.56944 16.1874 8.62312C16.2007 8.67383 16.2104 8.72594 16.2164 8.77919C16.2279 8.82837 16.2361 8.87881 16.2408 8.93026C16.2514 8.97954 16.2587 9.03003 16.2625 9.0815C16.2733 9.13641 16.28 9.19276 16.2824 9.25024C16.2904 9.29988 16.2951 9.35061 16.2964 9.40221C16.3039 9.45446 16.3078 9.50788 16.3078 9.56222L16.3078 9.56454C16.3129 9.60787 16.3156 9.65195 16.3156 9.69666C16.3156 9.7039 16.3155 9.71111 16.3154 9.71831C16.3192 9.75576 16.3211 9.79376 16.3211 9.83222C16.3211 9.85186 16.3206 9.87137 16.3196 9.89076C16.3214 9.9162 16.3222 9.94188 16.3222 9.96777C16.3222 10.5814 15.8248 11.0789 15.2111 11.0789C14.5975 11.0789 14.1 10.5814 14.1 9.96777C14.1 9.94814 14.1005 9.92863 14.1015 9.90924C14.0998 9.88379 14.0989 9.85811 14.0989 9.83222C14.0989 9.82696 14.0989 9.82171 14.099 9.81647L14.0991 9.81057C14.0953 9.77312 14.0933 9.73512 14.0933 9.69666L14.0933 9.69435C14.0892 9.65966 14.0867 9.62449 14.0859 9.5889C14.0805 9.5516 14.077 9.5137 14.0754 9.4753C14.0703 9.44383 14.0665 9.41191 14.0642 9.3796C14.057 9.34286 14.0516 9.30547 14.0481 9.26752C14.0404 9.23181 14.0345 9.19547 14.0303 9.15858C14.0225 9.12523 14.0162 9.09131 14.0115 9.05688C14.003 9.02424 13.9959 8.99102 13.9904 8.95728C13.981 8.92502 13.9731 8.89215 13.9667 8.85875C13.9556 8.82405 13.9462 8.78861 13.9386 8.75251C13.9269 8.71817 13.9169 8.68308 13.9086 8.64732C13.8974 8.61615 13.8876 8.58433 13.8791 8.55194C13.866 8.51839 13.8545 8.48405 13.8447 8.44901C13.8326 8.41968 13.8217 8.38973 13.8121 8.3592C13.7976 8.32675 13.7845 8.29348 13.7731 8.25947C13.7574 8.22618 13.7434 8.19199 13.731 8.15699C13.7178 8.13003 13.7056 8.10246 13.6945 8.07433C13.6773 8.04197 13.6616 8.00867 13.6475 7.9745C13.6311 7.94486 13.616 7.91439 13.6023 7.88317C13.5859 7.85518 13.5707 7.8264 13.5568 7.79692C13.5367 7.76463 13.5183 7.73123 13.5015 7.69683C13.485 7.67089 13.4695 7.64422 13.4551 7.61688C13.4353 7.58786 13.4168 7.55785 13.3997 7.52694C13.3804 7.4998 13.3623 7.47175 13.3454 7.44287C13.3244 7.41483 13.3047 7.38576 13.2864 7.35575C13.2661 7.32962 13.2468 7.30255 13.2288 7.27462C13.2066 7.2475 13.1857 7.21932 13.1661 7.19015C13.1431 7.16313 13.1213 7.135 13.1009 7.10585C13.0794 7.0815 13.059 7.0562 13.0397 7.03002C13.0171 7.00578 12.9957 6.98052 12.9753 6.95433C12.9522 6.93072 12.9302 6.90609 12.9093 6.8805C12.8841 6.85592 12.86 6.83016 12.8372 6.80329C12.8116 6.7793 12.7872 6.75413 12.7641 6.72785C12.7396 6.70574 12.7162 6.68256 12.6937 6.65838C12.6688 6.63691 12.6448 6.61434 12.6218 6.59076C12.5946 6.56854 12.5685 6.54507 12.5436 6.52042C12.5157 6.49852 12.4889 6.47531 12.4633 6.45089C12.439 6.43244 12.4154 6.41301 12.3926 6.39266C12.3619 6.37086 12.3323 6.34754 12.304 6.32281C12.2789 6.30547 12.2545 6.28713 12.2309 6.26784C12.1992 6.2474 12.1687 6.2254 12.1393 6.20194C12.1134 6.18569 12.0882 6.1684 12.0638 6.15013C12.0311 6.13103 11.9994 6.1103 11.969 6.08805C11.9422 6.07289 11.9162 6.05664 11.8909 6.03938C11.8597 6.02296 11.8294 6.0051 11.8001 5.98589C11.7699 5.97074 11.7405 5.95425 11.7119 5.9365C11.6798 5.92133 11.6485 5.90466 11.6181 5.88658C11.5857 5.87205 11.5541 5.85601 11.5234 5.83855C11.4946 5.82628 11.4663 5.81283 11.4388 5.79825C11.4043 5.78486 11.3707 5.76981 11.338 5.75318C11.3058 5.74121 11.2742 5.72778 11.2434 5.71298C11.2132 5.70256 11.1835 5.69087 11.1545 5.67797C11.1189 5.66692 11.0841 5.65412 11.0501 5.63968C11.0155 5.62952 10.9816 5.61772 10.9484 5.60437C10.9171 5.59584 10.8864 5.58598 10.8562 5.57485C10.8205 5.56627 10.7854 5.55595 10.7511 5.544C10.7174 5.53658 10.6843 5.52763 10.6518 5.51723C10.6163 5.51031 10.5814 5.5017 10.5472 5.49149C10.5134 5.48565 10.4802 5.47829 10.4475 5.46947C10.413 5.46445 10.379 5.45784 10.3456 5.44973C10.3088 5.44528 10.2725 5.43904 10.2368 5.43108C10.2017 5.42756 10.1671 5.42241 10.133 5.4157C10.0982 5.41307 10.0638 5.40884 10.0299 5.40307C9.99156 5.40118 9.9537 5.39734 9.91645 5.39165C9.8808 5.39052 9.84558 5.38772 9.81086 5.38331C9.77483 5.38309 9.73921 5.38115 9.70408 5.37758C9.70262 5.37761 9.70116 5.37763 9.69969 5.37765C9.69425 5.37773 9.6888 5.37777 9.68335 5.37777C9.65419 5.37777 9.6253 5.37665 9.59671 5.37444C9.58012 5.37518 9.56344 5.37555 9.54667 5.37555C9.52391 5.37555 9.50131 5.37487 9.47889 5.37352Z" fill="url(#paint1_linear_2_2963)"/>
<path d="M9.44668 8.06555C9.45858 8.06555 9.47043 8.06536 9.48224 8.06499C9.49404 8.06536 9.5059 8.06555 9.51779 8.06555C9.52404 8.06555 9.53027 8.0655 9.53649 8.0654C9.54852 8.06597 9.56059 8.06635 9.57272 8.06653C9.59049 8.06793 9.60838 8.06891 9.62638 8.06946C9.64353 8.07108 9.6608 8.07232 9.67817 8.07315C9.68981 8.07444 9.70149 8.07555 9.71323 8.07648C9.72503 8.07817 9.73689 8.07968 9.7488 8.081C9.76524 8.08388 9.7818 8.08641 9.79848 8.08856C9.81561 8.09188 9.83288 8.09481 9.85029 8.09733C9.86057 8.09949 9.8709 8.10151 9.88129 8.10339C9.89665 8.10717 9.91215 8.11063 9.92776 8.11377C9.94422 8.11815 9.96083 8.12217 9.97759 8.12581C9.98869 8.12895 9.99986 8.13193 10.0111 8.13473C10.0259 8.13945 10.0409 8.14386 10.056 8.14795C10.0579 8.14858 10.0597 8.14921 10.0616 8.14983C10.063 8.1503 10.0644 8.15076 10.0658 8.15123C10.0716 8.15315 10.0775 8.15501 10.0833 8.15683C10.1045 8.16488 10.126 8.17231 10.1478 8.17907L10.1545 8.1816C10.161 8.18401 10.1675 8.18637 10.1741 8.18867C10.1899 8.19532 10.2058 8.20162 10.222 8.20755C10.2354 8.21349 10.2491 8.21916 10.2628 8.22457C10.2692 8.22752 10.2756 8.23041 10.282 8.23325C10.2838 8.23408 10.2857 8.23491 10.2876 8.23574C10.3003 8.24222 10.3132 8.24846 10.3261 8.25446C10.3411 8.26254 10.3563 8.27029 10.3717 8.27769C10.3841 8.2846 10.3967 8.29129 10.4094 8.29774C10.4241 8.3064 10.4391 8.31474 10.4543 8.32273C10.4635 8.32835 10.4729 8.33383 10.4823 8.33918C10.4923 8.34565 10.5023 8.35196 10.5125 8.35811C10.5281 8.36888 10.544 8.37926 10.5601 8.38924C10.5701 8.3963 10.5803 8.40319 10.5905 8.40991C10.5987 8.41603 10.607 8.42203 10.6154 8.42792C10.629 8.43879 10.6429 8.44934 10.657 8.45956C10.6713 8.47129 10.6859 8.48267 10.7008 8.49368C10.7075 8.49927 10.7142 8.50479 10.721 8.51022C10.7312 8.51936 10.7415 8.52832 10.752 8.53708C10.7618 8.54634 10.7717 8.55541 10.7819 8.56431C10.7946 8.57691 10.8077 8.5892 10.821 8.60118C10.8304 8.61067 10.8399 8.61999 10.8496 8.62914C10.8589 8.63893 10.8682 8.64855 10.8778 8.658C10.8816 8.66222 10.8854 8.66641 10.8893 8.67057C10.8948 8.67655 10.9004 8.68247 10.9061 8.68832C10.9146 8.69823 10.9232 8.708 10.9321 8.7176C10.9412 8.72872 10.9505 8.73967 10.9599 8.75043C10.9678 8.76053 10.9759 8.77049 10.9841 8.7803C10.9951 8.79519 11.0065 8.80979 11.0182 8.8241C11.0254 8.83407 11.0328 8.84391 11.0403 8.85362C11.046 8.86187 11.0517 8.87005 11.0576 8.87814C11.0696 8.89705 11.0822 8.91558 11.0954 8.93369C11.1001 8.94108 11.1049 8.9484 11.1097 8.95567C11.1168 8.96763 11.124 8.97946 11.1314 8.99113C11.1384 9.00357 11.1455 9.01587 11.1529 9.02802C11.1583 9.03833 11.1639 9.04854 11.1696 9.05865C11.1782 9.07622 11.1873 9.09353 11.1968 9.11056C11.2007 9.11859 11.2046 9.12655 11.2086 9.13447C11.2167 9.15304 11.2253 9.17135 11.2344 9.18938C11.2357 9.1924 11.237 9.19541 11.2383 9.19842L11.2418 9.20627C11.2497 9.22726 11.2582 9.24794 11.2673 9.2683C11.2698 9.27502 11.2724 9.2817 11.275 9.28835C11.2771 9.2935 11.2791 9.29862 11.2813 9.30374C11.2851 9.31476 11.289 9.32571 11.2931 9.33657C11.2982 9.35288 11.3036 9.36903 11.3094 9.38501C11.3137 9.39957 11.3183 9.414 11.3231 9.4283C11.3257 9.43791 11.3285 9.44746 11.3313 9.45696C11.3352 9.47377 11.3395 9.49043 11.3442 9.50693C11.3476 9.52253 11.3513 9.538 11.3554 9.55334C11.3576 9.5647 11.36 9.576 11.3626 9.58723C11.3652 9.60336 11.3682 9.61938 11.3716 9.63527C11.3732 9.64682 11.3751 9.65831 11.3771 9.66974C11.379 9.68646 11.3813 9.70306 11.3839 9.71954C11.3856 9.7373 11.3877 9.75493 11.3902 9.77244C11.3911 9.78417 11.3922 9.79584 11.3935 9.80747C11.3944 9.82477 11.3956 9.84197 11.3972 9.85905C11.3976 9.87119 11.3981 9.88329 11.3989 9.89533V9.89666C11.3989 9.91451 11.3993 9.93226 11.4001 9.9499C11.4001 9.95585 11.4 9.9618 11.4 9.96777C11.4 10.5814 11.8975 11.0789 12.5111 11.0789C13.1248 11.0789 13.6222 10.5814 13.6222 9.96777C13.6222 9.94992 13.6218 9.93218 13.621 9.91454C13.6211 9.90859 13.6211 9.90263 13.6211 9.89666C13.6211 9.87285 13.6204 9.84921 13.6189 9.82577V9.82444C13.6189 9.78878 13.6172 9.75352 13.6139 9.71872C13.613 9.68856 13.6109 9.6587 13.6076 9.6292C13.6059 9.59374 13.6025 9.55873 13.5976 9.52422C13.5953 9.49485 13.5918 9.46581 13.5872 9.43712C13.5844 9.40706 13.5803 9.37734 13.5751 9.34803C13.5712 9.31307 13.5656 9.27861 13.5585 9.24472C13.5541 9.21477 13.5486 9.18522 13.5419 9.1561C13.5362 9.12165 13.529 9.08773 13.5202 9.05443C13.5144 9.02464 13.5073 8.99527 13.4991 8.96639C13.493 8.93819 13.4858 8.91039 13.4776 8.88303C13.4694 8.84784 13.4595 8.81329 13.448 8.77947C13.44 8.75007 13.4309 8.72115 13.4206 8.69277C13.4126 8.6655 13.4036 8.63867 13.3935 8.61232C13.3834 8.57963 13.3718 8.54758 13.3588 8.51626C13.3481 8.4852 13.3361 8.45477 13.3228 8.42502C13.3148 8.4039 13.3063 8.38309 13.2971 8.36261C13.2833 8.32579 13.2676 8.2899 13.2501 8.25505C13.2401 8.23183 13.2295 8.20901 13.218 8.18664C13.2035 8.15335 13.1875 8.12092 13.1699 8.08943C13.1589 8.06666 13.1473 8.04433 13.1348 8.02245C13.1202 7.99263 13.1043 7.96356 13.0871 7.93531C13.0728 7.90803 13.0573 7.88141 13.0408 7.85553C13.0258 7.82849 13.0097 7.80214 12.9925 7.77655C12.9743 7.74547 12.9546 7.71536 12.9335 7.6863C12.9215 7.66739 12.9089 7.64886 12.8957 7.63074C12.8772 7.60167 12.8574 7.57352 12.8364 7.54637C12.8182 7.5198 12.7988 7.49406 12.7785 7.46922C12.7632 7.44806 12.7471 7.42746 12.7304 7.40746C12.7113 7.38173 12.6912 7.35686 12.6701 7.3329C12.6514 7.30896 12.6318 7.28582 12.6113 7.26351C12.5913 7.23905 12.5703 7.21545 12.5484 7.19279C12.5284 7.16944 12.5074 7.14693 12.4855 7.12533C12.4648 7.10219 12.443 7.07994 12.4204 7.05863C12.399 7.03592 12.3767 7.01411 12.3535 6.99326C12.3349 6.97451 12.3157 6.95641 12.2959 6.93902C12.2738 6.91715 12.2508 6.8962 12.2269 6.87624C12.2044 6.85499 12.181 6.83466 12.1568 6.81532C12.1302 6.79139 12.1025 6.76873 12.0737 6.74742C12.0537 6.73068 12.0331 6.71463 12.0119 6.69931C11.9909 6.68205 11.9692 6.66555 11.9469 6.64985C11.9199 6.62829 11.8918 6.60797 11.8628 6.58897C11.8368 6.56953 11.8099 6.55122 11.7821 6.53408C11.7611 6.51929 11.7396 6.50522 11.7175 6.49188C11.6907 6.47331 11.6629 6.45589 11.6344 6.4397C11.6061 6.42131 11.5769 6.40417 11.5468 6.38837C11.5231 6.37397 11.4988 6.36044 11.474 6.34781C11.4476 6.33231 11.4205 6.31786 11.3927 6.30453C11.3685 6.291 11.3437 6.27836 11.3183 6.26664C11.2914 6.25216 11.2639 6.23875 11.2357 6.22648C11.2037 6.21014 11.1709 6.19532 11.1372 6.18208C11.1095 6.16923 11.0813 6.15748 11.0525 6.14688C11.0267 6.13555 11.0005 6.12516 10.9737 6.11577C10.9406 6.10183 10.9068 6.08944 10.8722 6.0787C10.851 6.07066 10.8296 6.06325 10.8078 6.05649C10.7743 6.04377 10.7401 6.03263 10.7051 6.02315C10.6765 6.01344 10.6474 6.00487 10.6178 5.99748C10.5852 5.98711 10.5519 5.97821 10.518 5.97085C10.4906 5.96308 10.4627 5.95634 10.4345 5.95067C10.4056 5.94298 10.3763 5.93642 10.3465 5.93105C10.3119 5.92253 10.2766 5.91563 10.2408 5.91044C10.2126 5.90449 10.1839 5.89963 10.1549 5.89588C10.1255 5.89019 10.0958 5.88566 10.0657 5.88233C10.0314 5.87631 9.99653 5.87186 9.96124 5.86906C9.92674 5.86412 9.89173 5.86076 9.85629 5.85907C9.82685 5.85579 9.79706 5.85367 9.76697 5.85275C9.73776 5.84999 9.70822 5.84836 9.6784 5.84791C9.64924 5.84561 9.61976 5.84444 9.59 5.84444C9.58376 5.84444 9.57753 5.84449 9.57131 5.84459C9.55358 5.84375 9.53574 5.84333 9.51779 5.84333C9.5059 5.84333 9.49404 5.84352 9.48224 5.84389C9.47043 5.84352 9.45858 5.84333 9.44668 5.84333C9.42288 5.84333 9.39925 5.84408 9.37581 5.84555L9.37446 5.84555C9.3447 5.84555 9.31522 5.84672 9.28606 5.84902C9.25003 5.84957 9.21441 5.85183 9.17929 5.85573C9.15017 5.85713 9.12134 5.85964 9.09285 5.86324C9.05615 5.8655 9.01993 5.86954 8.98428 5.87528C8.95583 5.87805 8.92769 5.8819 8.89991 5.88677C8.8698 5.8901 8.84006 5.89463 8.81072 5.90032C8.77491 5.90494 8.73963 5.91127 8.70497 5.91922C8.67633 5.92394 8.64806 5.92974 8.6202 5.9366C8.58462 5.94302 8.54963 5.95114 8.51532 5.96087C8.48714 5.96698 8.45936 5.97417 8.43203 5.98238C8.40245 5.98929 8.37332 5.99738 8.34469 6.00659C8.31132 6.0151 8.27855 6.02512 8.24646 6.03657C8.21712 6.04502 8.18829 6.05464 8.16002 6.06538C8.13278 6.07384 8.10599 6.08332 8.0797 6.09377C8.05061 6.10329 8.02206 6.11397 7.99409 6.12577C7.95995 6.13775 7.92658 6.15136 7.89406 6.16649C7.86772 6.17683 7.84188 6.18814 7.81658 6.20039C7.78817 6.21204 7.76035 6.22483 7.73317 6.23871C7.70506 6.25096 7.67754 6.26434 7.6507 6.2788C7.62286 6.29168 7.59564 6.30567 7.5691 6.32073C7.53932 6.33534 7.51029 6.35124 7.48208 6.36837C7.45473 6.38276 7.42806 6.39826 7.40212 6.41481C7.38249 6.42572 7.36323 6.43721 7.34436 6.44924C7.30994 6.46837 7.27664 6.48928 7.24459 6.51183C7.22123 6.52627 7.19844 6.54154 7.17627 6.55762C7.15014 6.57426 7.12476 6.59195 7.10017 6.61065C7.07028 6.63068 7.04141 6.65212 7.01367 6.67487C6.99546 6.68805 6.97767 6.70176 6.96032 6.71599C6.93208 6.73644 6.90483 6.75818 6.87867 6.78113C6.85738 6.79768 6.83671 6.81498 6.8167 6.83301C6.79238 6.8524 6.76889 6.87279 6.7463 6.89412C6.71934 6.91668 6.69346 6.9405 6.66876 6.96548C6.64892 6.98331 6.62972 7.00185 6.6112 7.02105C6.58515 7.04502 6.56025 7.07021 6.53659 7.09655C6.52058 7.11234 6.50504 7.12861 6.49001 7.14534C6.46496 7.1701 6.44108 7.19605 6.41846 7.22309C6.3972 7.24562 6.37687 7.26904 6.35753 7.29328C6.33986 7.3129 6.32287 7.33316 6.30661 7.35401C6.28547 7.37796 6.26535 7.40284 6.24631 7.42856C6.2265 7.45225 6.20765 7.47677 6.18983 7.50207C6.17062 7.52616 6.15239 7.55106 6.13519 7.57671C6.11342 7.60533 6.09301 7.63504 6.07404 7.66573C6.05926 7.68673 6.0452 7.70827 6.03187 7.7303C6.01626 7.7529 6.00146 7.77611 5.98752 7.79989C5.9657 7.83243 5.94557 7.86618 5.92723 7.90103C5.91557 7.92023 5.90449 7.93981 5.89399 7.95975C5.87684 7.988 5.86092 8.01707 5.84629 8.04689C5.82985 8.07587 5.81467 8.10566 5.80083 8.13618C5.7877 8.16098 5.77547 8.18633 5.76421 8.21219C5.75155 8.23699 5.7398 8.26231 5.729 8.28814C5.71213 8.32245 5.69698 8.35775 5.68365 8.39394C5.67448 8.41478 5.66593 8.43596 5.65802 8.45745C5.64444 8.48833 5.63222 8.51995 5.62144 8.55223C5.60807 8.58535 5.59626 8.61926 5.58608 8.65388C5.5777 8.67702 5.57007 8.70051 5.56321 8.72433C5.55118 8.75806 5.54073 8.79253 5.53196 8.82767C5.52379 8.85338 5.51654 8.87949 5.51023 8.90597C5.49944 8.9414 5.49038 8.97758 5.48314 9.01441C5.47583 9.04222 5.46957 9.07045 5.4644 9.09906C5.45754 9.12693 5.45173 9.15522 5.44702 9.18387C5.43908 9.21846 5.43276 9.25367 5.42814 9.28942C5.42243 9.31883 5.41789 9.34865 5.41455 9.37884C5.40968 9.40663 5.40583 9.43477 5.40306 9.46323C5.39734 9.49883 5.3933 9.53498 5.39104 9.57162C5.38743 9.60019 5.38491 9.6291 5.38351 9.6583C5.37962 9.69336 5.37736 9.72891 5.37681 9.76488C5.37452 9.79406 5.37334 9.82356 5.37334 9.85333C5.37334 9.85646 5.37336 9.85958 5.37338 9.8627C5.37341 9.86581 5.37345 9.86892 5.3735 9.87203C5.37266 9.88976 5.37223 9.90761 5.37223 9.92555C5.37223 9.93018 5.37226 9.9348 5.37232 9.93941C5.37241 9.94685 5.37257 9.95426 5.37281 9.96166C5.37243 9.97365 5.37223 9.98569 5.37223 9.99778C5.37223 10.0156 5.37265 10.0334 5.37349 10.051C5.37339 10.057 5.37334 10.0629 5.37334 10.0689C5.37334 10.0987 5.37452 10.1282 5.37681 10.1573C5.37727 10.1871 5.37889 10.2166 5.38165 10.2457C5.38274 10.2815 5.38553 10.3168 5.38993 10.3517C5.39182 10.3823 5.39495 10.4126 5.39927 10.4425C5.40208 10.477 5.40647 10.5111 5.41237 10.5447C5.41569 10.5747 5.42021 10.6044 5.42589 10.6337C5.42975 10.6636 5.4348 10.6931 5.44099 10.7222C5.44611 10.7568 5.45283 10.7908 5.46106 10.8243C5.46623 10.8529 5.47249 10.8811 5.4798 10.9089C5.48679 10.9445 5.49547 10.9794 5.50576 11.0136C5.51265 11.0431 5.52071 11.0722 5.5299 11.1007C5.537 11.1286 5.54514 11.156 5.55429 11.1829C5.5633 11.2161 5.5738 11.2487 5.58573 11.2805C5.59354 11.3062 5.60224 11.3315 5.61182 11.3563C5.62208 11.3886 5.63379 11.4204 5.64687 11.4514C5.65813 11.4835 5.67084 11.5149 5.6849 11.5456C5.69393 11.5691 5.70375 11.5922 5.7143 11.6149C5.72755 11.6486 5.74239 11.6815 5.75875 11.7136C5.771 11.7417 5.78439 11.7692 5.79885 11.796C5.81056 11.8213 5.82319 11.8461 5.83671 11.8704C5.85007 11.8982 5.86455 11.9254 5.8801 11.9518C5.89272 11.9767 5.90625 12.001 5.92065 12.0247C5.93894 12.0594 5.95901 12.0931 5.98075 12.1255C5.99208 12.1448 6.00397 12.1638 6.01641 12.1823C6.03464 12.2134 6.05433 12.2435 6.07539 12.2726C6.09202 12.2987 6.10972 12.3241 6.12841 12.3487C6.14367 12.3715 6.15976 12.3936 6.17662 12.4152C6.19347 12.4397 6.21128 12.4634 6.22999 12.4864C6.24867 12.5123 6.26845 12.5374 6.28925 12.5616C6.30805 12.5864 6.32787 12.6103 6.34864 12.6334C6.36801 12.6577 6.38838 12.6811 6.40968 12.7037C6.42961 12.7275 6.45052 12.7505 6.47234 12.7725C6.49279 12.7958 6.51419 12.8183 6.53649 12.8398C6.5516 12.8562 6.5672 12.8722 6.58326 12.8877C6.61018 12.9169 6.63866 12.9447 6.66855 12.971C6.69065 12.9928 6.71366 13.0138 6.73752 13.0337C6.7537 13.049 6.77034 13.0638 6.78741 13.0781C6.8163 13.1054 6.84665 13.1311 6.87833 13.1552C6.89891 13.1729 6.92015 13.1898 6.942 13.206C6.96197 13.2227 6.98253 13.2387 7.00365 13.254C7.03141 13.2768 7.06029 13.2982 7.0902 13.3182C7.11187 13.3347 7.13416 13.3504 7.15703 13.3653C7.18457 13.3857 7.21308 13.4048 7.24248 13.4225C7.26514 13.4382 7.2884 13.453 7.31223 13.467C7.33777 13.4841 7.36405 13.5002 7.39103 13.5152C7.41693 13.5317 7.44356 13.5472 7.47087 13.5616C7.49461 13.576 7.51894 13.5895 7.54381 13.6022C7.5748 13.6204 7.60675 13.6371 7.63956 13.6523C7.66642 13.6668 7.69394 13.6801 7.72206 13.6924C7.74924 13.7063 7.77706 13.7191 7.80548 13.7307C7.83078 13.743 7.85662 13.7543 7.88295 13.7646C7.91051 13.7774 7.93869 13.7892 7.96742 13.7997C7.99829 13.8133 8.02988 13.8255 8.06214 13.8363C8.09016 13.8476 8.11875 13.8578 8.14785 13.8669C8.17611 13.8776 8.20492 13.8872 8.23423 13.8956C8.26103 13.9052 8.2883 13.9138 8.316 13.9213C8.34829 13.9322 8.38124 13.9418 8.41479 13.9498C8.44489 13.9589 8.47554 13.9668 8.50668 13.9735C8.53985 13.9827 8.57364 13.9905 8.60798 13.9967C8.63584 14.0036 8.66411 14.0094 8.69275 14.0141C8.72187 14.0208 8.75143 14.0263 8.78137 14.0307C8.81525 14.0378 8.8497 14.0434 8.88465 14.0473C8.91396 14.0525 8.94366 14.0566 8.97372 14.0594C9.00247 14.064 9.03159 14.0675 9.06103 14.0698C9.09552 14.0748 9.13051 14.0781 9.16595 14.0798C9.19538 14.0831 9.22516 14.0852 9.25525 14.0861C9.2901 14.0894 9.32541 14.0911 9.36112 14.0911H9.36251C9.38593 14.0926 9.40955 14.0933 9.43335 14.0933C9.44525 14.0933 9.4571 14.0931 9.46891 14.0928C9.48071 14.0931 9.49256 14.0933 9.50446 14.0933C9.5158 14.0933 9.52709 14.0932 9.53835 14.0928C9.54961 14.0932 9.5609 14.0933 9.57224 14.0933C9.58376 14.0933 9.59524 14.0932 9.60668 14.0928C9.61812 14.0932 9.6296 14.0933 9.64112 14.0933C9.64764 14.0933 9.65415 14.0933 9.66064 14.0932C9.66544 14.0931 9.67023 14.093 9.67501 14.0928C9.68627 14.0932 9.69756 14.0933 9.7089 14.0933C9.72042 14.0933 9.73191 14.0932 9.74335 14.0928C9.75202 14.0931 9.76072 14.0932 9.76945 14.0933C9.77222 14.0933 9.77501 14.0933 9.77779 14.0933C9.78913 14.0933 9.80042 14.0932 9.81168 14.0928C9.82294 14.0932 9.83423 14.0933 9.84557 14.0933C9.85709 14.0933 9.86857 14.0932 9.88001 14.0928C9.89145 14.0932 9.90293 14.0933 9.91445 14.0933C9.92579 14.0933 9.93709 14.0932 9.94834 14.0928C9.9596 14.0932 9.97089 14.0933 9.98223 14.0933C9.99375 14.0933 10.0052 14.0932 10.0167 14.0928C10.0218 14.093 10.027 14.0931 10.0322 14.0932C10.0385 14.0933 10.0448 14.0933 10.0511 14.0933C10.0625 14.0933 10.0738 14.0932 10.085 14.0928C10.0963 14.0932 10.1076 14.0933 10.1189 14.0933C10.1304 14.0933 10.1419 14.0932 10.1533 14.0928C10.1648 14.0932 10.1763 14.0933 10.1878 14.0933C10.1931 14.0933 10.1983 14.0933 10.2036 14.0932C10.2096 14.0931 10.2157 14.093 10.2217 14.0928C10.2329 14.0932 10.2442 14.0933 10.2556 14.0933C10.2671 14.0933 10.2786 14.0932 10.29 14.0928C10.3014 14.0932 10.3129 14.0933 10.3244 14.0933C10.3358 14.0933 10.3471 14.0932 10.3583 14.0928C10.3696 14.0932 10.3809 14.0933 10.3922 14.0933C10.4038 14.0933 10.4152 14.0932 10.4267 14.0928C10.4381 14.0932 10.4496 14.0933 10.4611 14.0933C10.4725 14.0933 10.4838 14.0932 10.495 14.0928C10.5063 14.0932 10.5176 14.0933 10.5289 14.0933C10.5404 14.0933 10.5519 14.0932 10.5633 14.0928C10.5682 14.093 10.5731 14.0931 10.5781 14.0932C10.5846 14.0933 10.5912 14.0933 10.5978 14.0933C10.6091 14.0933 10.6204 14.0932 10.6317 14.0928C10.6429 14.0932 10.6542 14.0933 10.6656 14.0933C10.6713 14.0933 10.6769 14.0933 10.6826 14.0932C10.6884 14.0931 10.6942 14.093 10.7 14.0928C10.7114 14.0932 10.7229 14.0933 10.7345 14.0933C10.7458 14.0933 10.7571 14.0932 10.7683 14.0928C10.7796 14.0932 10.7909 14.0933 10.8022 14.0933C10.8138 14.0933 10.8252 14.0932 10.8367 14.0928C10.8481 14.0932 10.8596 14.0933 10.8711 14.0933C10.8826 14.0933 10.8941 14.0932 10.9056 14.0928C10.917 14.0932 10.9285 14.0933 10.94 14.0933C10.9457 14.0933 10.9513 14.0933 10.957 14.0932C10.9626 14.0931 10.9683 14.093 10.9739 14.0928C10.9852 14.0932 10.9964 14.0933 11.0078 14.0933C11.0139 14.0933 11.0199 14.0933 11.026 14.0932C11.0314 14.0931 11.0368 14.093 11.0422 14.0928C11.0537 14.0932 11.0651 14.0933 11.0767 14.0933C11.088 14.0933 11.0993 14.0932 11.1106 14.0928C11.1218 14.0932 11.1331 14.0933 11.1444 14.0933C11.156 14.0933 11.1675 14.0932 11.1789 14.0928C11.1903 14.0932 11.2018 14.0933 11.2133 14.0933C11.2247 14.0933 11.236 14.0932 11.2472 14.0928C11.2585 14.0932 11.2698 14.0933 11.2811 14.0933C11.2926 14.0933 11.3041 14.0932 11.3156 14.0928C11.327 14.0932 11.3385 14.0933 11.35 14.0933C11.3614 14.0933 11.3726 14.0932 11.3839 14.0928C11.3952 14.0932 11.4065 14.0933 11.4178 14.0933C11.4266 14.0933 11.4354 14.0932 11.4442 14.093L11.4522 14.0928C11.4637 14.0932 11.4752 14.0933 11.4867 14.0933C11.498 14.0933 11.5093 14.0932 11.5206 14.0928C11.5318 14.0932 11.5431 14.0933 11.5545 14.0933C11.566 14.0933 11.5775 14.0932 11.5889 14.0928C11.6003 14.0932 11.6118 14.0933 11.6233 14.0933C11.6296 14.0933 11.6358 14.0933 11.642 14.0932C11.6471 14.0931 11.6522 14.093 11.6572 14.0928C11.6685 14.0932 11.6798 14.0933 11.6911 14.0933C11.6975 14.0933 11.7038 14.0933 11.7102 14.0932C11.7153 14.0931 11.7204 14.093 11.7256 14.0928C11.737 14.0932 11.7485 14.0933 11.76 14.0933C11.7713 14.0933 11.7826 14.0932 11.7939 14.0928C11.8052 14.0932 11.8164 14.0933 11.8278 14.0933C11.8393 14.0933 11.8508 14.0932 11.8622 14.0928C11.8737 14.0932 11.8851 14.0933 11.8967 14.0933C11.908 14.0933 11.9193 14.0932 11.9306 14.0928C11.9418 14.0932 11.9531 14.0933 11.9644 14.0933L11.9723 14.0933C11.9812 14.0932 11.99 14.0931 11.9989 14.0928C12.0103 14.0932 12.0218 14.0933 12.0333 14.0933C12.0447 14.0933 12.056 14.0932 12.0672 14.0928C12.0785 14.0932 12.0898 14.0933 12.1011 14.0933C12.1126 14.0933 12.1241 14.0932 12.1356 14.0928C12.147 14.0932 12.1585 14.0933 12.17 14.0933C12.1814 14.0933 12.1926 14.0932 12.2039 14.0928C12.2152 14.0932 12.2265 14.0933 12.2378 14.0933C12.244 14.0933 12.2502 14.0933 12.2564 14.0932C12.2617 14.0931 12.267 14.093 12.2722 14.0928C12.2837 14.0932 12.2952 14.0933 12.3067 14.0933C12.318 14.0933 12.3293 14.0932 12.3406 14.0928C12.3518 14.0932 12.3631 14.0933 12.3745 14.0933C12.386 14.0933 12.3975 14.0932 12.4089 14.0928C12.4203 14.0932 12.4318 14.0933 12.4433 14.0933C12.4547 14.0933 12.466 14.0932 12.4772 14.0928C12.4885 14.0932 12.4998 14.0933 12.5111 14.0933C13.1248 14.0933 13.6222 13.5959 13.6222 12.9822C13.6222 12.3686 13.1248 11.8711 12.5111 11.8711C12.4998 11.8711 12.4885 11.8713 12.4772 11.8716C12.466 11.8713 12.4547 11.8711 12.4433 11.8711L12.4376 11.8711C12.4316 11.8712 12.4256 11.8712 12.4196 11.8714C12.416 11.8714 12.4124 11.8715 12.4089 11.8716C12.3975 11.8713 12.386 11.8711 12.3745 11.8711C12.3631 11.8711 12.3518 11.8713 12.3406 11.8716C12.3293 11.8713 12.318 11.8711 12.3067 11.8711C12.2952 11.8711 12.2837 11.8713 12.2722 11.8716C12.2663 11.8715 12.2604 11.8713 12.2545 11.8712C12.2489 11.8711 12.2434 11.8711 12.2378 11.8711C12.2265 11.8711 12.2152 11.8713 12.2039 11.8716C12.199 11.8715 12.1941 11.8714 12.1891 11.8713C12.1828 11.8712 12.1764 11.8711 12.17 11.8711C12.1585 11.8711 12.147 11.8713 12.1356 11.8716C12.1241 11.8713 12.1126 11.8711 12.1011 11.8711C12.0898 11.8711 12.0785 11.8713 12.0672 11.8716C12.056 11.8713 12.0447 11.8711 12.0333 11.8711C12.0245 11.8711 12.0157 11.8712 12.0069 11.8714C12.0042 11.8715 12.0016 11.8715 11.9989 11.8716C11.9947 11.8715 11.9904 11.8714 11.9862 11.8713C11.9789 11.8712 11.9717 11.8711 11.9644 11.8711C11.9531 11.8711 11.9418 11.8713 11.9306 11.8716C11.926 11.8715 11.9214 11.8714 11.9168 11.8713C11.9101 11.8712 11.9034 11.8711 11.8967 11.8711C11.8851 11.8711 11.8737 11.8713 11.8622 11.8716C11.8537 11.8714 11.8452 11.8712 11.8367 11.8711C11.8337 11.8711 11.8308 11.8711 11.8278 11.8711C11.8164 11.8711 11.8052 11.8713 11.7939 11.8716C11.7826 11.8713 11.7713 11.8711 11.76 11.8711C11.7485 11.8711 11.737 11.8713 11.7256 11.8716C11.7141 11.8713 11.7026 11.8711 11.6911 11.8711C11.6798 11.8711 11.6685 11.8713 11.6572 11.8716C11.646 11.8713 11.6347 11.8711 11.6233 11.8711C11.6118 11.8711 11.6003 11.8713 11.5889 11.8716C11.5775 11.8713 11.566 11.8711 11.5545 11.8711C11.5431 11.8711 11.5318 11.8713 11.5206 11.8716C11.5093 11.8713 11.498 11.8711 11.4867 11.8711C11.4752 11.8711 11.4637 11.8713 11.4522 11.8716C11.4408 11.8713 11.4293 11.8711 11.4178 11.8711C11.4065 11.8711 11.3952 11.8713 11.3839 11.8716C11.3726 11.8713 11.3614 11.8711 11.35 11.8711C11.3385 11.8711 11.327 11.8713 11.3156 11.8716C11.3041 11.8713 11.2926 11.8711 11.2811 11.8711C11.2747 11.8711 11.2683 11.8712 11.2619 11.8713C11.257 11.8714 11.2521 11.8715 11.2472 11.8716C11.236 11.8713 11.2247 11.8711 11.2133 11.8711C11.2018 11.8711 11.1903 11.8713 11.1789 11.8716C11.1675 11.8713 11.156 11.8711 11.1444 11.8711C11.1331 11.8711 11.1218 11.8713 11.1106 11.8716C11.0993 11.8713 11.088 11.8711 11.0767 11.8711C11.0686 11.8711 11.0605 11.8712 11.0525 11.8714C11.0491 11.8714 11.0456 11.8715 11.0422 11.8716C11.0364 11.8715 11.0306 11.8713 11.0247 11.8712C11.0191 11.8711 11.0134 11.8711 11.0078 11.8711C10.9964 11.8711 10.9851 11.8713 10.9739 11.8716C10.9626 11.8713 10.9513 11.8711 10.94 11.8711C10.9285 11.8711 10.917 11.8713 10.9056 11.8716C10.8941 11.8713 10.8826 11.8711 10.8711 11.8711C10.8596 11.8711 10.8481 11.8713 10.8367 11.8716C10.8252 11.8713 10.8138 11.8711 10.8022 11.8711C10.7909 11.8711 10.7796 11.8713 10.7683 11.8716C10.7571 11.8713 10.7458 11.8711 10.7345 11.8711C10.7287 11.8711 10.723 11.8712 10.7172 11.8712C10.7115 11.8713 10.7057 11.8715 10.7 11.8716C10.6886 11.8713 10.6771 11.8711 10.6656 11.8711C10.6542 11.8711 10.6429 11.8713 10.6317 11.8716C10.6204 11.8713 10.6091 11.8711 10.5978 11.8711C10.5863 11.8711 10.5748 11.8713 10.5633 11.8716C10.5579 11.8715 10.5524 11.8713 10.5469 11.8712C10.5409 11.8712 10.5349 11.8711 10.5289 11.8711C10.5176 11.8711 10.5063 11.8713 10.495 11.8716C10.4907 11.8715 10.4863 11.8714 10.4819 11.8713C10.475 11.8712 10.4681 11.8711 10.4611 11.8711C10.4496 11.8711 10.4381 11.8713 10.4267 11.8716C10.4152 11.8713 10.4038 11.8711 10.3922 11.8711C10.3809 11.8711 10.3696 11.8713 10.3583 11.8716C10.3471 11.8713 10.3358 11.8711 10.3244 11.8711C10.3129 11.8711 10.3014 11.8713 10.29 11.8716C10.2786 11.8713 10.2671 11.8711 10.2556 11.8711C10.2442 11.8711 10.2329 11.8713 10.2217 11.8716C10.2104 11.8713 10.1991 11.8711 10.1878 11.8711C10.1763 11.8711 10.1648 11.8713 10.1533 11.8716C10.1483 11.8715 10.1432 11.8714 10.1381 11.8713C10.1317 11.8712 10.1253 11.8711 10.1189 11.8711C10.1151 11.8711 10.1112 11.8711 10.1074 11.8712C10.0999 11.8712 10.0925 11.8714 10.085 11.8716C10.0792 11.8714 10.0735 11.8713 10.0677 11.8712C10.0622 11.8711 10.0567 11.8711 10.0511 11.8711C10.0396 11.8711 10.0281 11.8713 10.0167 11.8716C10.0052 11.8713 9.99375 11.8711 9.98223 11.8711C9.97089 11.8711 9.9596 11.8713 9.94834 11.8716C9.93709 11.8713 9.92579 11.8711 9.91445 11.8711C9.90293 11.8711 9.89145 11.8713 9.88001 11.8716C9.86857 11.8713 9.85709 11.8711 9.84557 11.8711C9.84075 11.8711 9.83594 11.8711 9.83114 11.8712C9.82464 11.8713 9.81815 11.8714 9.81168 11.8716C9.80042 11.8713 9.78913 11.8711 9.77779 11.8711C9.76627 11.8711 9.75478 11.8713 9.74335 11.8716C9.73191 11.8713 9.72042 11.8711 9.7089 11.8711C9.69757 11.8711 9.68627 11.8713 9.67501 11.8716C9.66376 11.8713 9.65246 11.8711 9.64112 11.8711C9.6296 11.8711 9.61812 11.8713 9.60668 11.8716C9.59524 11.8713 9.58376 11.8711 9.57224 11.8711C9.56719 11.8711 9.56215 11.8711 9.55712 11.8712C9.55085 11.8713 9.54459 11.8714 9.53835 11.8716C9.53264 11.8714 9.52693 11.8713 9.5212 11.8712C9.51563 11.8711 9.51005 11.8711 9.50446 11.8711C9.49256 11.8711 9.48071 11.8713 9.4689 11.8717C9.46536 11.8716 9.4618 11.8715 9.45825 11.8714L9.45533 11.8713C9.44802 11.8712 9.44069 11.8711 9.43335 11.8711H9.43196C9.41999 11.8704 9.40796 11.8698 9.39589 11.8694C9.37873 11.8678 9.36145 11.8666 9.34407 11.8657C9.33243 11.8644 9.32073 11.8633 9.30899 11.8624C9.29155 11.8599 9.27398 11.8578 9.25629 11.8561C9.23981 11.8535 9.2232 11.8512 9.20648 11.8493C9.19504 11.8473 9.18354 11.8455 9.17198 11.8438C9.15609 11.8404 9.14007 11.8374 9.12394 11.8348C9.10716 11.8309 9.09022 11.8275 9.07316 11.8244C9.06181 11.8216 9.05039 11.819 9.0389 11.8165C9.03312 11.8149 9.02731 11.8133 9.02149 11.8118C9.01796 11.8109 9.01442 11.81 9.01088 11.8091C9.00642 11.808 9.00194 11.8069 8.99746 11.8058C8.98674 11.8025 8.97597 11.7994 8.96512 11.7965C8.94884 11.791 8.93239 11.7858 8.91579 11.781C8.90138 11.7759 8.88684 11.771 8.87216 11.7665C8.85827 11.7612 8.84424 11.7562 8.83009 11.7515C8.81953 11.7472 8.80889 11.7431 8.79817 11.7391C8.78461 11.7332 8.77091 11.7275 8.75708 11.722C8.74161 11.7148 8.72596 11.708 8.71011 11.7015C8.69695 11.6951 8.68364 11.689 8.67019 11.6832C8.65745 11.6766 8.64458 11.6704 8.63156 11.6644C8.6281 11.6625 8.62462 11.6607 8.62114 11.6588C8.61691 11.6566 8.61268 11.6544 8.60842 11.6523C8.59369 11.6436 8.57875 11.6353 8.5636 11.6273C8.55147 11.62 8.5392 11.6128 8.52677 11.6059C8.51504 11.5984 8.50316 11.5912 8.49113 11.5841C8.47683 11.5745 8.4623 11.5653 8.44754 11.5563C8.43907 11.5505 8.43051 11.5447 8.42187 11.5391C8.4081 11.5289 8.39408 11.5191 8.37982 11.5095C8.37281 11.5042 8.36573 11.4989 8.35859 11.4938C8.34425 11.482 8.32961 11.4706 8.31468 11.4595C8.30135 11.4484 8.28776 11.4376 8.27391 11.427C8.27016 11.4238 8.2664 11.4206 8.26261 11.4175C8.24636 11.4021 8.22965 11.3873 8.21249 11.3729C8.20269 11.3637 8.19272 11.3546 8.18258 11.3457L8.17643 11.3396L8.17232 11.3357C8.15727 11.3193 8.14174 11.3034 8.12575 11.288C8.11657 11.278 8.10722 11.2682 8.09768 11.2586C8.08875 11.2484 8.07963 11.2384 8.07034 11.2285C8.06161 11.2181 8.0527 11.2078 8.0436 11.1977C8.03507 11.187 8.02634 11.1765 8.01743 11.1661C8.00994 11.1563 8.00228 11.1465 7.99447 11.1369C7.98583 11.1249 7.97695 11.1131 7.96784 11.1015C7.95794 11.0871 7.94771 11.073 7.93716 11.0591C7.92949 11.0476 7.92161 11.0363 7.91353 11.0252C7.90882 11.0178 7.90404 11.0105 7.89917 11.0032C7.8879 10.984 7.87608 10.9652 7.86371 10.9467C7.86082 10.9418 7.85789 10.9369 7.85493 10.932C7.84693 10.9168 7.83859 10.9018 7.82992 10.887C7.8235 10.8744 7.81685 10.8619 7.80998 10.8496C7.80257 10.8342 7.79482 10.819 7.78674 10.804C7.78071 10.7909 7.77445 10.7781 7.76794 10.7653C7.76434 10.7571 7.76063 10.7488 7.75683 10.7407C7.74936 10.7216 7.74138 10.7029 7.73291 10.6844C7.72871 10.6735 7.72435 10.6627 7.71983 10.6519C7.71611 10.6413 7.71224 10.6308 7.70821 10.6204C7.70253 10.6025 7.6964 10.5847 7.68985 10.5672C7.68643 10.556 7.68283 10.5448 7.67906 10.5337C7.6746 10.5173 7.66976 10.501 7.66457 10.4848C7.6607 10.4697 7.65653 10.4546 7.65205 10.4397C7.64972 10.4297 7.64726 10.4198 7.64467 10.41C7.6413 10.3929 7.63754 10.3759 7.6334 10.3591C7.63137 10.3478 7.62918 10.3366 7.62681 10.3255C7.62442 10.3094 7.62167 10.2933 7.61859 10.2774C7.61642 10.2607 7.61389 10.244 7.61099 10.2275C7.60963 10.2152 7.60806 10.203 7.6063 10.1908C7.60496 10.1743 7.60326 10.1579 7.6012 10.1416C7.60045 10.1295 7.59951 10.1174 7.59837 10.1054C7.59782 10.0873 7.59684 10.0694 7.59543 10.0515C7.59525 10.0395 7.59488 10.0276 7.59431 10.0156C7.59441 10.0097 7.59445 10.0037 7.59445 9.99778C7.59445 9.98569 7.59426 9.97365 7.59388 9.96166C7.59395 9.9593 7.59402 9.95693 7.59408 9.95455C7.59414 9.95245 7.59418 9.95034 7.59423 9.94823C7.59438 9.94069 7.59445 9.93313 7.59445 9.92555L7.59443 9.91767C7.5944 9.91406 7.59436 9.91045 7.5943 9.90685C7.59487 9.89484 7.59525 9.88278 7.59543 9.87067C7.59634 9.85921 7.59706 9.8477 7.59762 9.83614C7.59962 9.81812 7.60119 9.79997 7.60231 9.7817C7.60364 9.77121 7.60482 9.76067 7.60585 9.75009C7.60875 9.73207 7.61121 9.7139 7.61323 9.69559C7.61611 9.67922 7.61862 9.66273 7.62077 9.64613C7.62277 9.63581 7.62463 9.62543 7.62634 9.61501C7.63019 9.59824 7.63366 9.58132 7.63674 9.56427C7.64088 9.54744 7.64464 9.53047 7.648 9.51335C7.64977 9.50666 7.65146 9.49994 7.6531 9.49319C7.65348 9.49162 7.65386 9.49004 7.65424 9.48847C7.65965 9.47068 7.66464 9.4527 7.66917 9.43454C7.67221 9.42497 7.67513 9.41534 7.67791 9.40566C7.68491 9.38606 7.69136 9.3662 7.69727 9.34611C7.70041 9.33745 7.70344 9.32874 7.70636 9.31998C7.71062 9.30943 7.71472 9.2988 7.71866 9.2881C7.72778 9.26737 7.73628 9.24631 7.74415 9.22494C7.74687 9.21876 7.74954 9.21254 7.75215 9.2063C7.75964 9.19106 7.76679 9.17564 7.77359 9.16002C7.78135 9.14482 7.78877 9.12941 7.79584 9.11381C7.80122 9.10367 7.80644 9.09343 7.81151 9.0831C7.81725 9.07299 7.82283 9.06277 7.82826 9.05247C7.83998 9.03316 7.85113 9.01346 7.86168 8.99341C7.86459 8.98863 7.86745 8.98382 7.87028 8.97899C7.8799 8.96464 7.8892 8.95006 7.89815 8.93524C7.90893 8.91964 7.91932 8.90376 7.9293 8.88759C7.93419 8.88066 7.93899 8.87366 7.94372 8.86661C7.952 8.85572 7.96009 8.84467 7.96798 8.83347C7.97637 8.82295 7.98458 8.81227 7.9926 8.80143C8.00082 8.79161 8.00887 8.78164 8.01675 8.77154C8.02901 8.75764 8.04093 8.74343 8.0525 8.72893C8.06163 8.71879 8.07058 8.70848 8.07934 8.69801C8.08557 8.69141 8.09172 8.68474 8.09779 8.67798C8.11347 8.66248 8.12869 8.64652 8.14343 8.63011C8.15013 8.62351 8.15674 8.61682 8.16327 8.61005C8.17622 8.59814 8.18889 8.58591 8.20126 8.5734C8.20808 8.56727 8.21483 8.56106 8.2215 8.55476C8.2319 8.54606 8.24214 8.53717 8.25221 8.5281C8.2659 8.51718 8.27932 8.50595 8.29247 8.49442C8.30015 8.48845 8.30774 8.48238 8.31526 8.47622C8.33345 8.46305 8.35123 8.44934 8.36857 8.43512C8.37572 8.42994 8.38282 8.42468 8.38984 8.41934C8.40129 8.41166 8.4126 8.40378 8.42374 8.3957C8.43824 8.38647 8.4525 8.37692 8.46653 8.36705C8.47108 8.36424 8.4756 8.3614 8.4801 8.35853C8.49974 8.34761 8.51901 8.33612 8.5379 8.32407C8.55029 8.31719 8.56253 8.31007 8.57462 8.30273C8.58021 8.29979 8.58578 8.29679 8.59133 8.29375C8.59603 8.29118 8.6007 8.28857 8.60536 8.28592C8.61792 8.27976 8.63036 8.27337 8.64265 8.26675C8.65567 8.26073 8.66855 8.25446 8.68129 8.24795C8.69474 8.24209 8.70805 8.23597 8.72122 8.2296C8.73706 8.2231 8.75272 8.21625 8.76818 8.20906C8.77674 8.2057 8.78525 8.20223 8.79371 8.19867C8.8079 8.19368 8.82196 8.18842 8.83588 8.18289C8.85224 8.17753 8.86844 8.17181 8.88446 8.16573C8.89911 8.16117 8.91363 8.15633 8.92801 8.1512C8.93904 8.14802 8.94999 8.14468 8.96087 8.14118C8.97596 8.13733 8.99093 8.13317 9.00576 8.12872C9.0226 8.12479 9.03929 8.12048 9.05582 8.11579C9.0593 8.11504 9.06277 8.11427 9.06623 8.11348C9.07263 8.11202 9.07901 8.11051 9.08537 8.10895C9.10244 8.10587 9.11937 8.10239 9.13616 8.09854C9.14651 8.09684 9.15682 8.09499 9.16707 8.09301C9.18375 8.09085 9.20033 8.08833 9.21677 8.08544C9.23508 8.08342 9.25326 8.08095 9.2713 8.07804C9.28181 8.07702 9.29229 8.07585 9.30272 8.07453C9.32107 8.0734 9.3393 8.07183 9.3574 8.06981C9.36889 8.06926 9.38034 8.06854 9.39174 8.06764C9.40971 8.06737 9.42757 8.06667 9.44532 8.06555L9.44668 8.06555Z" fill="url(#paint2_linear_2_2963)"/>
</g>
</g>
<defs>
<linearGradient id="paint0_linear_2_2963" x1="14.375" y1="19.375" x2="18.75" y2="5" gradientUnits="userSpaceOnUse">
<stop stop-color="#5050E6"/>
<stop offset="0.255208" stop-color="#1861F2"/>
<stop offset="0.551157" stop-color="#3091F2"/>
<stop offset="1" stop-color="#49D6F2"/>
</linearGradient>
<linearGradient id="paint1_linear_2_2963" x1="14.375" y1="19.375" x2="18.75" y2="5" gradientUnits="userSpaceOnUse">
<stop stop-color="#5050E6"/>
<stop offset="0.255208" stop-color="#1861F2"/>
<stop offset="0.551157" stop-color="#3091F2"/>
<stop offset="1" stop-color="#49D6F2"/>
</linearGradient>
<linearGradient id="paint2_linear_2_2963" x1="14.375" y1="19.375" x2="18.75" y2="5" gradientUnits="userSpaceOnUse">
<stop stop-color="#5050E6"/>
<stop offset="0.255208" stop-color="#1861F2"/>
<stop offset="0.551157" stop-color="#3091F2"/>
<stop offset="1" stop-color="#49D6F2"/>
</linearGradient>
<clipPath id="clip0_2_2963">
<rect width="20" height="20" fill="white"/>
</clipPath>
</defs>
</svg>
