<svg width="24" height="24" viewBox="0 0 24 24" fill="none" xmlns="http://www.w3.org/2000/svg">
<g id="multi-paragraph-square">
<path id="Icon" d="M3 7.8C3 6.11984 3 5.27976 3.32698 4.63803C3.6146 4.07354 4.07354 3.6146 4.63803 3.32698C5.27976 3 6.11984 3 7.8 3H16.2C17.8802 3 18.7202 3 19.362 3.32698C19.9265 3.6146 20.3854 4.07354 20.673 4.63803C21 5.27976 21 6.11984 21 7.8V16.2C21 17.8802 21 18.7202 20.673 19.362C20.3854 19.9265 19.9265 20.3854 19.362 20.673C18.7202 21 17.8802 21 16.2 21H7.8C6.11984 21 5.27976 21 4.63803 20.673C4.07354 20.3854 3.6146 19.9265 3.32698 19.362C3 18.7202 3 17.8802 3 16.2V7.8Z" stroke="#667085" stroke-width="1.67" stroke-linecap="round" stroke-linejoin="round"/>
<path id="Icon_2" d="M7.95238 7V14M7 7H8.90476C11.2926 7 12 7.875 12 8.96875C12 11.8125 7.95238 11.375 7.95238 11.375M8.90476 14H7" stroke="#667085" stroke-width="1.67" stroke-linecap="round" stroke-linejoin="round"/>
<g id="Text">
<path d="M11.0462 18V17.2486L12.7287 15.6228C12.8718 15.4783 12.9918 15.3483 13.0887 15.2327C13.1872 15.1171 13.2618 15.0039 13.3126 14.8931C13.3634 14.7807 13.3888 14.6594 13.3888 14.5294C13.3888 14.3849 13.3572 14.2604 13.2941 14.1561C13.2311 14.0501 13.1449 13.969 13.0356 13.9128C12.9264 13.855 12.8025 13.8261 12.6641 13.8261C12.5194 13.8261 12.3933 13.8566 12.2855 13.9176C12.1778 13.9786 12.0948 14.0662 12.0363 14.1802C11.9778 14.2942 11.9486 14.4298 11.9486 14.5872H11C11 14.2645 11.07 13.9843 11.21 13.7466C11.35 13.509 11.5462 13.3251 11.7986 13.1951C12.0509 13.065 12.3417 13 12.671 13C13.0095 13 13.3041 13.0626 13.5549 13.1879C13.8073 13.3115 14.0035 13.4833 14.1435 13.7033C14.2835 13.9232 14.3535 14.1753 14.3535 14.4595C14.3535 14.6458 14.3181 14.8296 14.2473 15.0111C14.1781 15.1925 14.0542 15.394 13.8757 15.6156C13.6973 15.8356 13.4457 16.0997 13.121 16.408L12.431 17.1137V17.1474H14.4158V18H11.0462Z" fill="#667085"/>
<path d="M15.6459 14.3006L16.2967 15.5939L16.9637 14.3006H17.9723L16.9453 16.1503L18 18H16.996L16.2967 16.7211L15.6089 18H14.5934L15.6459 16.1503L14.6303 14.3006H15.6459Z" fill="#667085"/>
</g>
</g>
</svg>
